<svg xmlns="http://www.w3.org/2000/svg" width="43" height="40" fill="none" viewBox="0 0 43 40">
  <mask id="a" fill="#fff">
    <path d="M6.434 26.68c0-.94-.008-1.879 0-2.819 0-.166-.06-.199-.229-.198-1.406.006-2.812 0-4.217.004a1.003 1.003 0 0 1-.804-.307.727.727 0 0 1 .072-1.041 21680.126 21680.126 0 0 0 7.859-7.252l3.204-2.955 5.369-4.955a3307.348 3307.348 0 0 1 3.946-3.635.77.77 0 0 1 .724-.003l4.267 3.935 3.434 3.165 5.462 5.042a4682.462 4682.462 0 0 1 7.203 6.64.71.71 0 0 1 .203.874.877.877 0 0 1-.876.49c-1.232.002-2.463.002-3.695 0-.213 0-.426.003-.638 0-.114-.004-.17.028-.159.136.006.057 0 .116 0 .173V39.18c0 .25 0 .25-.283.25H11.383c.007-.073.078-.075.112-.109a5.57 5.57 0 0 1 1.27-.658.84.84 0 0 0 .581-.902 2.7 2.7 0 0 0-.227-1.029 1.206 1.206 0 0 1-.057-.166c-.03-.101.012-.167.117-.209.12-.043.242-.08.366-.109.271-.064.531-.17.77-.315a.5.5 0 0 0 .254-.632 1.92 1.92 0 0 0-.546-.785c-.227-.212-.219-.276.05-.44a2.85 2.85 0 0 0 .602-.431.584.584 0 0 0 .09-.74 2.3 2.3 0 0 0-.684-.74 2.363 2.363 0 0 0-.168-.117.184.184 0 0 1-.067-.297 4.6 4.6 0 0 0 .315-.515 1.31 1.31 0 0 0 .141-.5.677.677 0 0 0-.435-.676 2.6 2.6 0 0 0-.86-.244c-.213-.032-.24-.065-.252-.261-.01-.15.012-.299 0-.45a.938.938 0 0 0-1.014-.912 4.052 4.052 0 0 0-.676.016c-.214.027-.272-.006-.345-.192a3.124 3.124 0 0 0-.232-.474.983.983 0 0 0-1.01-.467 2.42 2.42 0 0 0-.983.333c-.367.208-.415.2-.561-.164a.758.758 0 0 0-.787-.471c-.18-.002-.361-.008-.54.005-.091.006-.15-.016-.173-.098Z"/>
  </mask>
  <path fill="#3A3244" d="M6.434 26.68h-1.8v.247l.066.237 1.734-.483Zm0-2.819 1.8.015v-.015h-1.8Zm-.229-.198.007 1.8h.006l-.013-1.8Zm-4.217.004-.005-1.8h-.068l-.067.006.14 1.794Zm-.804-.307-1.341 1.2.02.022.02.021 1.301-1.243Zm.072-1.041 1.164 1.373.03-.026.03-.027-1.224-1.32Zm2.49-2.297 1.218 1.325.003-.002-1.22-1.323Zm5.37-4.956-1.221-1.322 1.22 1.322Zm3.203-2.954 1.22 1.324v-.001l-1.22-1.323Zm5.369-4.955-1.221-1.323 1.22 1.323Zm3.19-2.942L19.662 2.89l-.001.001 1.219 1.324Zm.756-.693-.853-1.585-.198.107-.166.152 1.217 1.326Zm.724-.003 1.22-1.324-.172-.158-.207-.11-.84 1.592Zm4.267 3.935-1.22 1.323 1.22-1.323Zm3.434 3.165 1.22-1.323-1.22 1.323Zm5.462 5.042-1.22 1.322 1.22-1.322Zm3.22 2.964 1.22-1.323-.002-.003-1.218 1.326Zm3.983 3.676-1.222 1.322.057.053.062.048 1.103-1.423Zm.203.874-1.617-.79-.002.003 1.619.787Zm-.876.49.182-1.791-.093-.01h-.093l.004 1.8Zm-3.695 0 .003-1.8h-.003v1.8Zm-.638 0-.047 1.799h.015l.032-1.8Zm-.159.136 1.79-.182v-.003l-1.79.185ZM11.383 39.43l-1.792-.175L9.4 41.23h1.984v-1.8Zm.112-.109-1.027-1.479-.142.099-.12.124 1.289 1.256Zm1.27-.658-.543-1.716-.037.011-.037.014.616 1.691Zm.581-.902-1.8.038.003.087.01.087 1.787-.212Zm-.227-1.029-1.656.705.004.01.004.01 1.648-.725Zm-.057-.166 1.741-.457-.007-.028-.008-.028-1.726.513Zm.117-.209-.615-1.691-.023.008-.022.009.66 1.675Zm.366-.109.412 1.753.005-.002-.417-1.75Zm.77-.315-.762-1.63-.087.04-.083.05.932 1.54Zm.254-.632-1.687.628.004.009.003.008 1.68-.645Zm-.546-.785-1.228 1.315.026.025.027.023 1.175-1.363Zm.05-.44-.844-1.59-.049.025-.046.03.94 1.534Zm.602-.431 1.232 1.312.002-.002-1.234-1.31Zm.09-.74-1.558.902.022.036.023.036 1.513-.975Zm-.684-.74-1.093 1.43.035.026.036.025 1.022-1.482Zm-.168-.117.964-1.52-.143-.09-.158-.063-.663 1.673Zm-.067-.297 1.318 1.226.082-.089.07-.099-1.47-1.038Zm.315-.515 1.594.836.004-.007.003-.008-1.601-.821Zm.141-.5 1.795.14v-.012l.001-.01-1.796-.118Zm-.435-.676-.78 1.622.07.034.073.027.637-1.683Zm-.86-.244-.268 1.78.041.006.042.005.185-1.79Zm-.252-.261-1.796.114v.004l1.796-.118Zm0-.45-1.8.04.001.052.005.053 1.794-.144Zm-1.014-.912-.11 1.797.132.008.132-.011-.154-1.793Zm-.676.016-.19-1.79-.016.002-.016.002.222 1.786Zm-.345-.192 1.678-.652v-.002l-1.678.654Zm-.232-.474-1.548.919.005.008 1.543-.927Zm-1.01-.467.199 1.789.053-.006.052-.009-.303-1.774Zm-.983.333.888 1.566.02-.012.022-.013-.93-1.541Zm-.561-.164-1.671.669 1.67-.67Zm-.787-.471-.02 1.8.11.001.112-.012-.202-1.789Zm-.54.005.123 1.795h.002l-.125-1.795Zm1.627-.098c0-.962-.008-1.874 0-2.805l-3.6-.03c-.008.949 0 1.916 0 2.835h3.6Zm0-2.82c0-.177-.005-.989-.726-1.567-.593-.474-1.278-.43-1.316-.43l.026 3.6a1.395 1.395 0 0 1-.236-.023 1.649 1.649 0 0 1-.724-.336c-.65-.52-.624-1.233-.624-1.244h3.6Zm-2.036-1.998c-1.422.006-2.776 0-4.215.004l.01 3.6c1.372-.003 2.83.002 4.219-.003l-.014-3.6Zm-4.35.01a.797.797 0 0 1 .347.05L.909 25.285c.388.149.804.21 1.219.177l-.28-3.59Zm.347.05c.11.042.21.108.29.193l-2.602 2.487c.287.3.637.534 1.026.682l1.286-3.362Zm.331.237c.096.107.169.232.215.367l-3.405 1.167c.11.32.282.614.507.866l2.683-2.4Zm.215.367c.047.135.065.279.055.421L-.795 22.7a2.54 2.54 0 0 0 .13.994l3.406-1.167Zm.055.421c-.01.143-.048.282-.112.41L-.53 21.733c-.152.302-.243.63-.266.967l3.591.248Zm-.112.41a1.072 1.072 0 0 1-.264.334L.093 20.945c-.258.219-.47.487-.622.788l3.213 1.625Zm-.204.281c.826-.766 1.654-1.53 2.484-2.292l-2.435-2.651a754.33 754.33 0 0 0-2.496 2.303l2.447 2.64Zm2.487-2.294 5.37-4.956-2.443-2.645-5.368 4.955 2.44 2.646Zm5.369-4.956c1.067-.985 2.135-1.97 3.203-2.953l-2.44-2.648c-1.068.985-2.137 1.97-3.204 2.956l2.441 2.645Zm3.204-2.954c1.79-1.652 3.58-3.303 5.369-4.956l-2.442-2.645-5.368 4.955 2.44 2.646Zm5.369-4.955a2219 2219 0 0 1 3.189-2.94L19.66 2.89c-1.065.98-2.13 1.961-3.193 2.943l2.442 2.646Zm3.188-2.94.755-.692-2.435-2.652-.756.694 2.436 2.65Zm.39-.433a1.03 1.03 0 0 1-.484.123l-.014-3.6a2.57 2.57 0 0 0-1.208.307l1.706 3.17Zm-.484.123c-.169 0-.336-.04-.485-.12l1.681-3.183a2.57 2.57 0 0 0-1.21-.297l.014 3.6Zm-.864-.388 4.266 3.935 2.441-2.646-4.267-3.936-2.44 2.647Zm4.266 3.936 3.434 3.165 2.44-2.648-3.434-3.164-2.44 2.647Zm3.433 3.164 5.462 5.041 2.442-2.645-5.463-5.042-2.441 2.646Zm5.463 5.042c1.073.99 2.147 1.979 3.223 2.967l2.435-2.652c-1.074-.986-2.146-1.973-3.217-2.961L34.3 16.984Zm3.22 2.964a5182.67 5182.67 0 0 1 3.981 3.675l2.444-2.644a5174.48 5174.48 0 0 0-3.984-3.677l-2.44 2.646Zm4.1 3.776a1.09 1.09 0 0 1-.394-.615l3.507-.814a2.51 2.51 0 0 0-.907-1.417l-2.206 2.846Zm-.394-.615a1.09 1.09 0 0 1 .083-.724l3.234 1.581c.253-.518.32-1.108.19-1.67l-3.507.813Zm.08-.72a.923.923 0 0 1 .381-.403l1.754 3.144a2.677 2.677 0 0 0 1.103-1.167l-3.237-1.575Zm.381-.403a.925.925 0 0 1 .545-.113l-.365 3.582a2.675 2.675 0 0 0 1.574-.325l-1.754-3.144Zm.359-.122c-1.229.003-2.458.003-3.688 0l-.007 3.6c1.234.003 2.468.003 3.702 0l-.007-3.6Zm-3.691 0c-.258 0-.413.004-.607 0l-.063 3.6c.23.004.502 0 .67 0v-3.6Zm-.592 0c-.113-.002-.723-.027-1.28.409-.727.567-.751 1.367-.715 1.713l3.58-.37c.025.237.023.968-.65 1.493a1.68 1.68 0 0 1-.703.325 1.47 1.47 0 0 1-.325.03l.093-3.6Zm-1.996 2.12a1.318 1.318 0 0 1-.006-.132v-.01.017l-.001.015a2.236 2.236 0 0 0-.002.1h3.6v.014-.02l.002-.035c0-.052.003-.171-.011-.314l-3.582.365Zm-.009-.01V39.18h3.6V23.974h-3.6Zm0 15.206c0 .112-.003.023.01-.08.014-.115.087-.63.563-1.051.43-.379.894-.41.932-.415.069-.006.122-.004.012-.004v3.6c.032 0 .19.002.34-.013.117-.011.634-.06 1.099-.47a1.906 1.906 0 0 0 .625-1.198c.022-.174.019-.356.019-.37h-3.6Zm1.517-1.55H11.383v3.6h25.893v-3.6Zm-24.102 1.974a1.718 1.718 0 0 1-.814 1.297c-.047.029-.083.047-.088.05l.04-.02c.045-.025.261-.137.472-.354l-2.579-2.512c.195-.2.39-.3.412-.31.007-.005.041-.022.004-.003a1.905 1.905 0 0 0-.66.553 1.882 1.882 0 0 0-.37.95l3.583.35Zm-.653 1.196c.266-.185.555-.335.86-.446l-1.233-3.382a7.42 7.42 0 0 0-1.68.87l2.053 2.958Zm.785-.42a2.64 2.64 0 0 0 1.424-1.088l-3.025-1.95a.96.96 0 0 1 .517-.395l1.084 3.432Zm1.424-1.088a2.643 2.643 0 0 0 .404-1.743l-3.575.424a.956.956 0 0 1 .146-.631l3.025 1.95Zm.416-1.57a4.497 4.497 0 0 0-.38-1.714l-3.295 1.448a.9.9 0 0 1 .076.343l3.599-.076Zm-.37-1.694c.01.026.02.053.027.08l-3.482.914c.037.142.084.28.142.415l3.312-1.41Zm.011.025c.083.28.136.78-.16 1.289a1.6 1.6 0 0 1-.787.69l-1.321-3.349a2.003 2.003 0 0 0-1.007.854 1.953 1.953 0 0 0-.176 1.541l3.451-1.025Zm-.993 1.996c.053-.02.107-.035.163-.048l-.823-3.505a5.028 5.028 0 0 0-.57.17l1.23 3.383Zm.168-.05a4.488 4.488 0 0 0 1.284-.526l-1.863-3.08a.889.889 0 0 1-.254.104L13.962 38Zm1.114-.435a2.3 2.3 0 0 0 1.16-1.224l-3.34-1.345a1.3 1.3 0 0 1 .657-.693l1.523 3.262Zm1.16-1.224a2.3 2.3 0 0 0 .014-1.685l-3.36 1.291a1.3 1.3 0 0 1 .007-.951l3.34 1.345Zm.02-1.667a3.72 3.72 0 0 0-1.058-1.521l-2.35 2.727a.12.12 0 0 1 .034.05l3.374-1.256ZM15.252 33.2c-.044-.041.03.021.118.145.088.126.35.54.28 1.14a1.65 1.65 0 0 1-.507 1.02c-.104.096-.183.138-.13.105l-1.88-3.07c-.08.05-.261.162-.436.323-.17.158-.548.557-.623 1.209a1.945 1.945 0 0 0 .351 1.344c.141.2.3.35.37.415l2.457-2.63Zm-.334 2.465c.36-.191.692-.43.989-.708l-2.464-2.624a.994.994 0 0 1-.214.153l1.69 3.179Zm.991-.71c.406-.382.664-.894.731-1.447l-3.573-.434c.034-.282.166-.544.373-.739l2.47 2.62Zm.731-1.447a2.384 2.384 0 0 0-.362-1.579l-3.026 1.95a1.216 1.216 0 0 1-.185-.805l3.573.434Zm-.318-1.506a4.101 4.101 0 0 0-1.218-1.32l-2.045 2.964c.06.042.111.096.148.16l3.115-1.804Zm-1.147-1.268a4.137 4.137 0 0 0-.298-.206l-1.928 3.04.039.026 2.187-2.86Zm-.599-.36c.245.098.463.254.633.454l-2.737 2.338c.21.245.476.436.777.555l1.327-3.346Zm.633.454c.171.2.29.438.348.694l-3.512.79c.07.315.217.608.427.854l2.737-2.338Zm.348.694c.058.256.052.522-.017.776l-3.475-.939a1.986 1.986 0 0 0-.02.953l3.512-.79Zm-.017.776a1.615 1.615 0 0 1-.376.679l-2.636-2.452c-.22.236-.379.523-.463.834l3.476.939Zm-.224.491c.162-.23.309-.469.439-.717L12.567 30.4a2.792 2.792 0 0 1-.192.313l2.941 2.076Zm.446-.732a3.12 3.12 0 0 0 .335-1.182l-3.59-.278a.48.48 0 0 1 .052-.183l3.204 1.643Zm.336-1.204a2.477 2.477 0 0 0-.388-1.5l-3.028 1.946a1.124 1.124 0 0 1-.176-.68l3.592.234Zm-.388-1.5a2.475 2.475 0 0 0-1.205-.977l-1.275 3.367a1.126 1.126 0 0 1-.548-.444l3.028-1.946Zm-1.062-.915c-.457-.22-.95-.36-1.456-.412l-.37 3.58c.092.01.181.035.264.076l1.562-3.244Zm-1.373-.402c-.036-.005.047.004.166.043a1.651 1.651 0 0 1 1.077 1.167c.033.133.035.23.033.19l-3.592.237c.004.059.014.233.062.428.055.223.178.567.477.883.294.31.62.45.82.516.184.06.351.086.42.096l.537-3.56Zm1.276 1.404c.002.032 0 .053.004-.045.002-.065.01-.239-.006-.433l-3.588.288c-.004-.044-.001-.069-.004.015-.001.03-.004.091-.004.154-.001.066 0 .152.006.25l3.592-.229Zm.003-.373a2.738 2.738 0 0 0-.248-1.081l-3.272 1.5a.863.863 0 0 1-.079-.341l3.6-.078Zm-.248-1.081a2.737 2.737 0 0 0-.657-.895l-2.408 2.677a.864.864 0 0 1-.207-.283l3.272-1.5Zm-.657-.895a2.735 2.735 0 0 0-.96-.56l-1.144 3.414a.867.867 0 0 1-.304-.177l2.408-2.677Zm-.96-.56a2.734 2.734 0 0 0-1.103-.13l.31 3.586a.868.868 0 0 1-.351-.042l1.145-3.413Zm-.839-.134a5.846 5.846 0 0 0-.976.022l.383 3.58c.124-.014.25-.016.374-.009l.219-3.593Zm-1.007.026.011-.001a1.308 1.308 0 0 1 .187-.002 1.615 1.615 0 0 1 1.33.883.923.923 0 0 1 .027.062l-3.355 1.303c.04.107.26.728.918 1.096.617.344 1.235.242 1.326.231l-.444-3.572Zm1.554.94a4.921 4.921 0 0 0-.367-.748L8.945 28.47c.038.064.071.131.098.2l3.354-1.307Zm-.362-.74a2.782 2.782 0 0 0-1.223-1.104L9.3 28.786a.818.818 0 0 1-.36-.325l3.095-1.837Zm-1.223-1.104a2.78 2.78 0 0 0-1.636-.217l.606 3.548a.82.82 0 0 1-.482-.064l1.511-3.267Zm-1.53-.232a4.218 4.218 0 0 0-1.717.58l1.86 3.083a.617.617 0 0 1 .252-.085l-.396-3.578Zm-1.674.556c-.102.058-.068.034.01.003.061-.024.47-.187 1.002-.037.578.163.857.563.933.683.068.108.09.182.052.084l-3.342 1.338a3 3 0 0 0 .246.5c.138.218.48.675 1.134.86a2.014 2.014 0 0 0 1.285-.075c.195-.076.373-.178.455-.224l-1.775-3.132Zm1.997.733a2.558 2.558 0 0 0-1.061-1.244l-1.849 3.089a1.042 1.042 0 0 1-.432-.507l3.342-1.338Zm-1.061-1.244a2.555 2.555 0 0 0-1.6-.347l.405 3.578a1.045 1.045 0 0 1-.654-.142l1.849-3.089Zm-1.376-.358c-.128-.001-.413-.01-.687.009l.25 3.591c.086-.006.162-.003.395 0l.042-3.6Zm-.685.009c.08-.006.435-.028.837.18.497.256.751.688.848 1.035l-3.468.966c.12.428.415.912.97 1.198.46.238.889.224 1.06.212l-.247-3.591Z" mask="url(#a)"/>
  <path fill="#DB475A" d="M22.347 27.77h-4.82a2.554 2.554 0 0 1-.559-.049 1.616 1.616 0 0 1-1.263-1.526c-.008-1.456-.002-2.91-.006-4.367 0-.104.06-.093.127-.093h5.597c.124 0 .125 0 .125-.12v-3.899c0-.148.005-.154.156-.154h.704c.154 0 .162.008.162.159v3.855c0 .159 0 .159.158.159h6.13c.14 0 .14 0 .14.14v4.234a1.63 1.63 0 0 1-1.403 1.636c-.115.017-.23.024-.346.023-1.634.002-3.268.002-4.902.002Z"/>
  <path fill="#DB475A" d="M20.82 21.476a4.054 4.054 0 0 1-.429-.017.583.583 0 0 1-.485-.325 5.132 5.132 0 0 1-.295-.792 47.183 47.183 0 0 1-.752-2.714 2.173 2.173 0 0 1-.028-.909c.049-.286.193-.37.452-.208.221.139.404.33.533.557.39.682.778 1.365 1.134 2.065.07.136.133.275.202.411.077.15.116.316.114.483 0 .452-.004.903-.003 1.354 0 .072-.025.1-.098.096-.107-.004-.213-.001-.344-.001Zm4.512-.004c-.077 0-.155-.003-.232 0-.077.004-.098-.029-.09-.1.027-.262.054-.525.077-.787.037-.377.07-.754.098-1.13.043-.574.082-1.147.12-1.72.028-.404.052-.808.078-1.212.004-.07.01-.141.02-.21.02-.145.079-.192.225-.196.261 0 .522.021.78.063.132.017.13.02.108.15l-.723 4.286c-.043.255-.088.51-.128.764-.01.067-.038.097-.11.092-.072-.006-.149 0-.223 0Zm.498-.002h-.05c-.095 0-.098-.006-.064-.096.149-.402.3-.803.447-1.206l1.165-3.223c.069-.19.144-.378.213-.569.021-.06.046-.07.103-.039.204.108.409.217.617.317.068.033.072.064.044.128-.23.545-.503 1.07-.768 1.597-.491.974-.983 1.948-1.476 2.92-.05.099-.101.202-.23.17Zm.667-.002c-.072 0-.144.003-.214 0-.048-.002-.111.023-.138-.031-.027-.055.032-.09.06-.127a215.542 215.542 0 0 1 2.259-3.045c.063-.083.065-.083.119.002.126.199.257.395.369.602a.248.248 0 0 1-.066.336 9.05 9.05 0 0 0-.847.791 11.22 11.22 0 0 0-1.03 1.28c-.018.027-.038.052-.056.08a.237.237 0 0 1-.233.114c-.074-.007-.149-.002-.223-.002Zm-2.577-.982c0-.357-.011-.715.017-1.073a.502.502 0 0 1 .706-.455.486.486 0 0 1 .31.48c.007.253 0 .505-.023.757-.024.389-.056.777-.082 1.166-.008.114-.005.116-.124.116-.23 0-.458-.003-.686 0-.086 0-.12-.02-.119-.113.005-.291.001-.585.001-.878Zm-5.41.985h-.998c-.135 0-.135 0-.12-.13a1.13 1.13 0 0 1 2.249.013c.008.109 0 .117-.108.117h-1.024Z"/>
  <path fill="#DB475A" d="M18.431 19.261a1.566 1.566 0 0 1-.51 1.09c-.046.044-.075.027-.112-.005a1.421 1.421 0 0 1-.498-.898 1.377 1.377 0 0 1 .34-1.151c.049-.055.109-.1.161-.152.044-.043.078-.032.121.005a1.413 1.413 0 0 1 .498 1.111Zm-1.494 1.496a1.479 1.479 0 0 1-1.19-.536c-.046-.052-.03-.078.022-.108.303-.173.661-.22.998-.132.303.068.574.237.77.479.074.09.072.1-.03.151a1.3 1.3 0 0 1-.57.146Zm6.017-.201c0-.267.003-.534 0-.8 0-.086.032-.113.114-.115.374-.009.506.12.503.492-.005.42-.06.835-.097 1.253-.005.06-.029.09-.095.088a4.58 4.58 0 0 0-.329 0c-.077.003-.096-.031-.096-.1.002-.272 0-.545 0-.818Zm1.174-4.04.167.793.016.069a.056.056 0 0 0 .05.045c.031.005.036-.023.047-.043.013-.03.023-.06.038-.09.015-.028.011-.065.055-.053.036.01.046.043.043.078a22.85 22.85 0 0 0-.04.367c-.003.028-.026.063.004.082.03.018.054-.014.081-.024.014-.006.027-.014.04-.019.015-.005.04-.024.06-.01.018.013.009.042.005.064-.055.262-.11.523-.167.784a.293.293 0 0 1-.03.081c-.067.117-.154.129-.253.037a.276.276 0 0 1-.072-.14 32.132 32.132 0 0 1-.296-1.214.18.18 0 0 1 .06-.21.199.199 0 0 0 .073-.137c.021-.12.044-.242.069-.363a.155.155 0 0 1 .05-.097Zm2.002 3.021c.045-.298.11-.592.194-.882.172-.608.414-1.19.615-1.79l.108-.325c.014-.046.036-.079.087-.086.052-.007.062.036.083.065a.296.296 0 0 1 .024.291c-.333.886-.66 1.772-.99 2.659a.849.849 0 0 1-.041.097c-.013.024-.033.048-.063.038-.03-.01-.013-.042-.017-.067Zm-3.172-1.553c.036.02.032.05.036.072.021.095.04.19.062.284.007.027-.001.067.03.078.03.012.047-.027.07-.044a.455.455 0 0 0 .045-.042c.034-.033.056-.024.068.02.022.072.041.146.065.218.014.041.008.097.08.096.032 0 .016.032.01.049-.023.06-.046.12-.072.18-.023.05-.02.086.041.098.087.018.095.069.059.136a.794.794 0 0 1-.42.375c-.048.02-.09.02-.09-.05l.002-1.44c0-.008.007-.016.014-.03Zm-2.35 1.297a2.959 2.959 0 0 1-.329 1.868 2.803 2.803 0 0 1 .329-1.868Zm-.988.261a2.422 2.422 0 0 1 .31-1.722 2.521 2.521 0 0 1-.31 1.722Z"/>
  <path fill="#3A3244" d="M7.832 4.133c-.197-.108-.367-.216-.55-.304a2.405 2.405 0 0 0-3.394 1.58 2.323 2.323 0 0 0 .176 1.62c.057.118.116.236.18.363-.133.042-.261.08-.39.123a2.348 2.348 0 0 0-1.67 1.837 2.405 2.405 0 0 0 1.859 2.806 2.32 2.32 0 0 0 1.69-.27l.216-.123a.14.14 0 0 1 .02-.006l2.127 2.274 6.076-5.541c-.712-.761-1.418-1.519-2.133-2.281a2.348 2.348 0 0 0 .51-2.202 2.332 2.332 0 0 0-1.19-1.467 2.362 2.362 0 0 0-2.153-.072 2.487 2.487 0 0 0-1.374 1.663Z"/>
</svg>
