<svg xmlns="http://www.w3.org/2000/svg" width="832" height="225" fill="none" viewBox="0 0 832 225">
  <rect width="832" height="225" fill="#E1E1E1" rx="14"/>
  <path fill="#fff" d="M406.396 108.921a8.672 8.672 0 0 1-8.677-8.678 8.672 8.672 0 0 1 8.677-8.677 8.672 8.672 0 0 1 8.677 8.677 8.672 8.672 0 0 1-8.677 8.678Zm0-12.622a3.945 3.945 0 0 0 0 7.889 3.945 3.945 0 0 0 0-7.889Z"/>
  <path fill="#fff" d="M425.331 146.784h-18.932c-17.133 0-24.454-7.32-24.454-24.453v-18.932c0-17.133 7.321-24.454 24.454-24.454h12.621a2.384 2.384 0 0 1 2.367 2.367 2.384 2.384 0 0 1-2.367 2.366h-12.621c-14.546 0-19.721 5.175-19.721 19.721v18.932c0 14.546 5.175 19.72 19.721 19.72h18.932c14.546 0 19.72-5.174 19.72-19.72v-15.777a2.384 2.384 0 0 1 2.367-2.366 2.383 2.383 0 0 1 2.366 2.366v15.777c0 17.133-7.32 24.453-24.453 24.453Z"/>
  <path fill="#fff" d="M445.049 93.143h-17.354a2.384 2.384 0 0 1-2.367-2.366 2.384 2.384 0 0 1 2.367-2.367h17.354a2.384 2.384 0 0 1 2.366 2.367 2.384 2.384 0 0 1-2.366 2.366Z"/>
  <path fill="#fff" d="M436.374 101.821a2.383 2.383 0 0 1-2.366-2.366V82.101a2.384 2.384 0 0 1 2.366-2.367 2.384 2.384 0 0 1 2.367 2.367v17.354a2.383 2.383 0 0 1-2.367 2.366Zm-49.949 35.337a2.368 2.368 0 0 1-1.956-1.041 2.374 2.374 0 0 1 .631-3.281l15.555-10.444c3.408-2.272 8.109-2.02 11.202.599l1.041.915c1.577 1.357 4.259 1.357 5.806 0l13.126-11.264c3.376-2.872 8.614-2.872 11.99 0l5.143 4.417a2.387 2.387 0 0 1 .252 3.345 2.385 2.385 0 0 1-3.344.252l-5.143-4.417c-1.578-1.357-4.26-1.357-5.806 0l-13.126 11.264c-3.345 2.872-8.614 2.872-11.99 0l-1.042-.915c-1.451-1.23-3.849-1.357-5.458-.252l-15.524 10.444a2.767 2.767 0 0 1-1.357.378Z"/>
</svg>
