<svg xmlns="http://www.w3.org/2000/svg" width="1208" height="222" fill="none" viewBox="0 0 1208 222">
  <path fill="#E6E6E7" d="M0 0h1208v222H0z"/>
  <rect width="78" height="78" x="565" y="60" fill="#DBDBDB" rx="7"/>
  <path fill="#9D9D9D" d="M608.625 117.864h-10.25c-9.276 0-13.24-3.963-13.24-13.239v-10.25c0-9.276 3.964-13.24 13.24-13.24h10.25c9.276 0 13.24 3.964 13.24 13.24v10.25c0 9.276-3.964 13.239-13.24 13.239Zm-10.25-34.166c-7.875 0-10.677 2.801-10.677 10.677v10.25c0 7.875 2.802 10.677 10.677 10.677h10.25c7.875 0 10.677-2.802 10.677-10.677v-10.25c0-7.876-2.802-10.677-10.677-10.677h-10.25Z"/>
  <path fill="#9D9D9D" d="M598.375 97.365a4.695 4.695 0 0 1-4.698-4.698 4.695 4.695 0 0 1 4.698-4.698 4.695 4.695 0 0 1 4.698 4.698 4.695 4.695 0 0 1-4.698 4.698Zm0-6.834a2.136 2.136 0 1 0 .001 4.272 2.136 2.136 0 0 0-.001-4.272Zm-10.814 22.123a1.274 1.274 0 0 1-.7-2.34l8.422-5.655c1.845-1.247 4.39-1.093 6.064.325l.564.495c.854.735 2.306.735 3.143 0l7.107-6.099c1.811-1.554 4.664-1.554 6.492 0l2.784 2.392c.53.461.598 1.264.137 1.811a1.292 1.292 0 0 1-1.811.136l-2.784-2.391c-.855-.735-2.307-.735-3.161 0l-7.106 6.099c-1.811 1.554-4.664 1.554-6.492 0l-.564-.496c-.786-.666-2.084-.734-2.955-.137l-8.422 5.655a1.387 1.387 0 0 1-.718.205Zm-19.154 57.437V181h-1.977v-8.986h-.064l-2.551 1.63v-1.811l2.711-1.742h1.881ZM571.176 181v-1.428l3.788-3.712c.362-.366.664-.691.905-.975a3.56 3.56 0 0 0 .544-.826c.12-.266.181-.55.181-.852 0-.344-.078-.639-.235-.884a1.548 1.548 0 0 0-.644-.575 2.08 2.08 0 0 0-.932-.203 1.92 1.92 0 0 0-.943.224c-.27.145-.48.353-.629.623-.145.27-.218.591-.218.964h-1.88c0-.692.158-1.294.474-1.806a3.196 3.196 0 0 1 1.305-1.187c.557-.281 1.196-.421 1.917-.421.732 0 1.375.136 1.929.41.554.273.983.648 1.289 1.124.309.476.463 1.019.463 1.63 0 .408-.078.809-.234 1.204-.157.394-.432.831-.826 1.31-.391.479-.939 1.06-1.646 1.742l-1.88 1.912v.075h4.751V181h-7.479Zm13.349.208c-.877 0-1.63-.222-2.258-.666-.625-.448-1.106-1.092-1.444-1.934-.334-.845-.501-1.862-.501-3.052.004-1.19.173-2.202.506-3.036.338-.838.819-1.477 1.444-1.918.629-.44 1.38-.66 2.253-.66.874 0 1.625.22 2.253.66.629.441 1.11 1.08 1.444 1.918.337.838.506 1.85.506 3.036 0 1.193-.169 2.212-.506 3.058-.334.841-.815 1.484-1.444 1.928-.625.444-1.376.666-2.253.666Zm0-1.668c.682 0 1.22-.335 1.614-1.006.398-.675.597-1.668.597-2.978 0-.866-.091-1.594-.272-2.184-.181-.589-.437-1.033-.767-1.332a1.682 1.682 0 0 0-1.172-.452c-.678 0-1.214.337-1.608 1.012-.395.671-.593 1.656-.597 2.956-.004.87.083 1.602.261 2.195.181.593.437 1.04.767 1.342.33.298.723.447 1.177.447Zm9.851 1.609c-.792 0-1.495-.133-2.11-.399-.611-.267-1.09-.631-1.438-1.092a2.566 2.566 0 0 1-.511-1.582 2.621 2.621 0 0 1 .298-1.263c.202-.383.476-.703.82-.959a2.646 2.646 0 0 1 1.162-.495v-.075a2.306 2.306 0 0 1-1.364-.857 2.469 2.469 0 0 1-.511-1.561 2.48 2.48 0 0 1 .468-1.502c.316-.44.75-.787 1.3-1.039.55-.255 1.179-.383 1.886-.383.699 0 1.322.128 1.869.383.551.252.984.599 1.3 1.039.32.44.479.941.479 1.502 0 .59-.175 1.11-.527 1.561a2.301 2.301 0 0 1-1.348.857v.075c.427.071.81.236 1.151.495.344.256.618.576.82.959.206.384.309.805.309 1.263 0 .589-.174 1.116-.522 1.582-.348.461-.827.825-1.438 1.092-.607.266-1.305.399-2.093.399Zm0-1.523c.408 0 .763-.07 1.065-.208.302-.142.536-.341.703-.597.167-.255.252-.55.256-.884a1.652 1.652 0 0 0-.272-.921 1.781 1.781 0 0 0-.719-.634 2.253 2.253 0 0 0-1.033-.229c-.391 0-.739.076-1.044.229a1.818 1.818 0 0 0-.725.634 1.618 1.618 0 0 0-.256.921c-.003.334.079.629.246.884.166.253.401.45.703.592.305.142.664.213 1.076.213Zm0-4.97c.333 0 .628-.068.884-.203a1.535 1.535 0 0 0 .841-1.4 1.56 1.56 0 0 0-.223-.821 1.44 1.44 0 0 0-.607-.548 1.949 1.949 0 0 0-.895-.197c-.345 0-.648.065-.911.197-.259.127-.462.31-.607.548a1.508 1.508 0 0 0-.208.821c-.004.316.067.594.213.836.149.238.353.426.612.564.263.135.563.203.901.203Zm8.26 3.958.123-2.158-1.812 1.188-.649-1.129 1.933-.97-1.933-.969.649-1.129 1.812 1.188-.123-2.158h1.294l-.117 2.158 1.811-1.188.65 1.129-1.939.969 1.939.97-.65 1.129-1.811-1.188.117 2.158h-1.294Zm5.689 2.386v-1.428l3.787-3.712c.362-.366.664-.691.906-.975.241-.284.422-.559.543-.826.121-.266.181-.55.181-.852 0-.344-.078-.639-.234-.884a1.545 1.545 0 0 0-.645-.575 2.076 2.076 0 0 0-.932-.203 1.92 1.92 0 0 0-.943.224c-.27.145-.479.353-.628.623-.146.27-.219.591-.219.964h-1.88c0-.692.158-1.294.474-1.806a3.196 3.196 0 0 1 1.305-1.187c.558-.281 1.197-.421 1.918-.421.731 0 1.374.136 1.928.41.554.273.984.648 1.289 1.124.309.476.463 1.019.463 1.63 0 .408-.078.809-.234 1.204-.156.394-.431.831-.826 1.31-.39.479-.939 1.06-1.645 1.742l-1.881 1.912v.075h4.752V181h-7.479Zm9.316 0v-1.428l3.788-3.712c.362-.366.664-.691.905-.975.242-.284.423-.559.543-.826.121-.266.182-.55.182-.852 0-.344-.079-.639-.235-.884a1.548 1.548 0 0 0-.644-.575 2.08 2.08 0 0 0-.932-.203 1.92 1.92 0 0 0-.943.224c-.27.145-.48.353-.629.623-.145.27-.218.591-.218.964h-1.881c0-.692.158-1.294.474-1.806a3.204 3.204 0 0 1 1.306-1.187c.557-.281 1.196-.421 1.917-.421.732 0 1.374.136 1.928.41.554.273.984.648 1.289 1.124.309.476.464 1.019.464 1.63 0 .408-.078.809-.234 1.204-.157.394-.432.831-.826 1.31-.391.479-.939 1.06-1.646 1.742l-1.88 1.912v.075h4.751V181h-7.479Zm13.349.208c-.877 0-1.63-.222-2.258-.666-.625-.448-1.107-1.092-1.444-1.934-.334-.845-.501-1.862-.501-3.052.004-1.19.173-2.202.506-3.036.338-.838.819-1.477 1.444-1.918.628-.44 1.379-.66 2.253-.66.874 0 1.625.22 2.253.66.629.441 1.11 1.08 1.444 1.918.337.838.506 1.85.506 3.036 0 1.193-.169 2.212-.506 3.058-.334.841-.815 1.484-1.444 1.928-.625.444-1.376.666-2.253.666Zm0-1.668c.682 0 1.22-.335 1.614-1.006.398-.675.597-1.668.597-2.978 0-.866-.091-1.594-.272-2.184-.181-.589-.437-1.033-.767-1.332a1.682 1.682 0 0 0-1.172-.452c-.678 0-1.214.337-1.609 1.012-.394.671-.593 1.656-.596 2.956-.004.87.083 1.602.261 2.195.181.593.437 1.04.767 1.342.33.298.723.447 1.177.447Z"/>
</svg>
