<svg xmlns="http://www.w3.org/2000/svg" width="245" height="245" fill="none" viewBox="0 0 245 245">
  <circle cx="122.5" cy="122.5" r="122.5" fill="#E1E1E1"/>
  <path fill="#fff" d="M113.396 118.557a8.672 8.672 0 0 1-8.677-8.677 8.672 8.672 0 0 1 8.677-8.677 8.672 8.672 0 0 1 8.677 8.677 8.672 8.672 0 0 1-8.677 8.677Zm0-12.621a3.946 3.946 0 0 0-3.944 3.944 3.946 3.946 0 0 0 3.944 3.944 3.946 3.946 0 0 0 3.944-3.944 3.946 3.946 0 0 0-3.944-3.944Z"/>
  <path fill="#fff" d="M132.331 156.421h-18.932c-17.133 0-24.454-7.32-24.454-24.454v-18.931c0-17.134 7.32-24.454 24.454-24.454h12.621a2.384 2.384 0 0 1 2.367 2.367 2.384 2.384 0 0 1-2.367 2.366h-12.621c-14.546 0-19.72 5.175-19.72 19.721v18.931c0 14.546 5.174 19.721 19.72 19.721h18.932c14.546 0 19.72-5.175 19.72-19.721v-15.776a2.384 2.384 0 0 1 2.367-2.367 2.383 2.383 0 0 1 2.366 2.367v15.776c0 17.134-7.32 24.454-24.453 24.454Z"/>
  <path fill="#fff" d="M152.049 102.78h-17.354a2.384 2.384 0 0 1-2.367-2.367 2.384 2.384 0 0 1 2.367-2.366h17.354a2.384 2.384 0 0 1 2.366 2.366 2.384 2.384 0 0 1-2.366 2.367Z"/>
  <path fill="#fff" d="M143.374 111.458a2.384 2.384 0 0 1-2.366-2.366V91.738a2.384 2.384 0 0 1 2.366-2.367 2.384 2.384 0 0 1 2.367 2.367v17.354a2.384 2.384 0 0 1-2.367 2.366Zm-49.949 35.337a2.369 2.369 0 0 1-1.956-1.041 2.376 2.376 0 0 1 .63-3.282l15.556-10.444c3.408-2.271 8.109-2.019 11.202.6l1.041.915c1.577 1.357 4.259 1.357 5.806 0l13.126-11.265c3.376-2.871 8.614-2.871 11.99 0l5.143 4.418a2.387 2.387 0 0 1 .252 3.345 2.385 2.385 0 0 1-3.344.252l-5.143-4.417c-1.578-1.357-4.26-1.357-5.806 0l-13.126 11.264c-3.345 2.871-8.614 2.871-11.99 0l-1.042-.915c-1.451-1.231-3.849-1.357-5.458-.252l-15.524 10.444a2.766 2.766 0 0 1-1.357.378Z"/>
</svg>
