<svg id="Layer_1" data-name="Layer 1" xmlns="http://www.w3.org/2000/svg" xmlns:xlink="http://www.w3.org/1999/xlink" viewBox="0 0 264.61 229.8"><defs><style>.cls-1{fill:#fff;}.cls-2{mask:url(#mask);}.cls-3{fill:#3b3244;}.cls-4{fill:#db485a;}</style><mask id="mask" x="0" y="0" width="264.61" height="229.8" maskUnits="userSpaceOnUse"><g transform="translate(-160.07 -298.14)"><g id="a"><path class="cls-1" d="M202.05,443.51c0-5.46-.05-10.91,0-16.37,0-1-.35-1.15-1.33-1.14-8.16,0-16.32,0-24.47,0a5.81,5.81,0,0,1-4.66-1.78,4.22,4.22,0,0,1,.32-6l.09-.08q22.82-21,45.61-42.08L236.2,359l31.16-28.75q11.43-10.56,22.9-21.09a4.43,4.43,0,0,1,4.2,0l44.68,41.2q15.86,14.63,31.7,29.26,20.93,19.24,41.8,38.53a4.13,4.13,0,0,1,1.18,5.08,5.1,5.1,0,0,1-5.09,2.84H383.59c-.66,0-1,.16-.93.79a8.34,8.34,0,0,1,0,1V516c0,1.45,0,1.45-1.63,1.45H230.77c0-.42.45-.43.65-.63a32,32,0,0,1,7.37-3.82,4.88,4.88,0,0,0,3.37-5.23,15.53,15.53,0,0,0-1.32-6,7.91,7.91,0,0,1-.33-1c-.17-.58.07-1,.68-1.21a20,20,0,0,1,2.13-.63,15.66,15.66,0,0,0,4.46-1.83,2.9,2.9,0,0,0,1.48-3.67,11.27,11.27,0,0,0-3.17-4.56c-1.32-1.23-1.27-1.6.29-2.55a16.54,16.54,0,0,0,3.49-2.49,3.38,3.38,0,0,0,.52-4.3,13.36,13.36,0,0,0-4-4.3c-.32-.24-.64-.47-1-.68a1.07,1.07,0,0,1-.64-1.27,1.11,1.11,0,0,1,.25-.45,24.65,24.65,0,0,0,1.83-3,7.55,7.55,0,0,0,.82-2.9,3.92,3.92,0,0,0-2.53-3.92,14.65,14.65,0,0,0-5-1.41c-1.23-.19-1.39-.39-1.46-1.52-.06-.87.07-1.74,0-2.61a5.45,5.45,0,0,0-5.57-5.31l-.31,0a23.46,23.46,0,0,0-3.93.09c-1.24.15-1.57,0-2-1.12a18.88,18.88,0,0,0-1.34-2.75,5.7,5.7,0,0,0-5.86-2.71,14,14,0,0,0-5.71,1.93c-2.13,1.22-2.41,1.16-3.25-1a4.41,4.41,0,0,0-4.57-2.73c-1.05,0-2.1-.05-3.14,0C202.53,444.11,202.18,444,202.05,443.51Z"/></g></g></mask></defs><g class="cls-2"><path class="cls-3" d="M202.05,443.51H191.61v1.43l.38,1.37Zm0-16.37,10.45.1v-.09H202.05ZM200.72,426l0,10.45h0Zm-24.47,0,0-10.45h-.39l-.39,0Zm-4.66-1.78-7.79,7,.12.13.12.13Zm.41-6,6.76,8,.17-.15.18-.16L172,418.2Zm14.45-13.33,7.07,7.69,0,0-7.08-7.67Zm31.16-28.76-7.09-7.68,7.09,7.68ZM236.2,359l7.08,7.69Zm31.16-28.75-7.09-7.67,7.08,7.67Zm18.51-17.07-7.06-7.69h0l7.07,7.69Zm4.39-4-4.95-9.2-1.15.62-1,.88Zm4.2,0,7.08-7.68-1-.93-1.2-.63-4.88,9.24Zm24.76,22.84-7.08,7.67h0Zm19.93,18.36,7.08-7.68Zm31.69,29.26-7.08,7.67Zm18.69,17.2,7.08-7.68h0Zm23.11,21.33-7.09,7.67.33.31.36.28Zm1.18,5.08-9.38-4.59v0ZM408.73,426l1.06-10.4-.54-.05h-.54l0,10.44Zm-21.44,0,0-10.45h0Zm-3.7,0-.27,10.44h.09l.18-10.45Zm-.93.79,10.4-1.06h0l-10.39,1.07ZM230.78,517.49l-10.4-1-1.12,11.46h11.51V517.49Zm.65-.63-6-8.58-.83.57-.7.72ZM238.8,513l-3.16-10-.21.07-.21.08,3.57,9.81Zm3.37-5.23-10.45.22v.5l.06.51Zm-1.32-6-9.61,4.09,0,.05,0,.06Zm-.33-1,10.1-2.65,0-.16,0-.16Zm.68-1.21-3.57-9.81-.13,0-.13.06Zm2.12-.63,2.39,10.17h0L243.32,499Zm4.47-1.83-4.42-9.47-.51.24-.48.29,5.41,8.94Zm1.47-3.67-9.79,3.64,0,.06,0,0ZM246.1,489,239,496.61l.15.14.16.14Zm.29-2.55-4.9-9.23-.29.16-.26.16,5.45,8.91Zm3.48-2.49,7.15,7.61,0,0-7.17-7.6Zm.53-4.3-9,5.23.13.21.13.21,8.78-5.65Zm-4-4.3-6.35,8.3.21.15.21.15Zm-1-.68,5.59-8.82-.83-.52-.92-.37Zm-.39-1.72,7.65,7.11.47-.51.41-.58Zm1.83-3,9.25,4.85,0,0,0-.05Zm.81-2.9,10.42.81v-.13Zm-2.52-3.92-4.53,9.41.41.2.42.16Zm-5-1.41L238.64,472l.24,0,.25,0Zm-1.46-1.52-10.43.66v0Zm0-2.61-10.45.23v.3l0,.31Zm-5.89-5.29-.63,10.43.76,0,.77-.07Zm-3.92.09L227.83,442h-.19Zm-2-1.12,9.74-3.78h0Zm-1.35-2.75-9,5.33,0,.06Zm-5.86-2.71,1.16,10.39.3,0,.31-.06-1.76-10.29Zm-5.7,1.93,5.15,9.09.12-.07.12-.07Zm-3.26-1-9.7,3.89,9.7-3.89Zm-4.57-2.73-.11,10.45h.64l.65-.07-1.18-10.38Zm-3.13,0,.71,10.42h0Zm9.44-.57c0-5.58,0-10.87,0-16.27l-20.89-.18c0,5.5,0,11.12,0,16.45Zm0-16.37a11.48,11.48,0,0,0-4.21-9.08,11.94,11.94,0,0,0-7.64-2.51l.15,20.9a8,8,0,0,1-1.37-.14,9.69,9.69,0,0,1-7.82-9.16H212.5Zm-11.81-11.58c-8.25,0-16.11,0-24.46,0l.06,20.89c8,0,16.42,0,24.48,0Zm-25.25.05a4.48,4.48,0,0,1,2,.29L170,435.41a16.3,16.3,0,0,0,7.08,1l-1.62-20.82Zm2,.29a4.47,4.47,0,0,1,1.68,1.12L164,431.46a16.33,16.33,0,0,0,6,4Zm1.91,1.37a6.07,6.07,0,0,1,1.26,2.13l-19.76,6.78a14.6,14.6,0,0,0,2.94,5l15.57-13.93Zm1.26,2.13a6.37,6.37,0,0,1,.32,2.45l-20.84-1.44a14.7,14.7,0,0,0,.75,5.77Zm.32,2.45a6.3,6.3,0,0,1-.65,2.37l-18.65-9.42a14.63,14.63,0,0,0-1.54,5.61Zm-.65,2.37a6.22,6.22,0,0,1-1.54,1.95l-13.51-15.94a14.74,14.74,0,0,0-3.61,4.57l18.65,9.42Zm-1.19,1.64q7.2-6.66,14.42-13.3l-14.14-15.39q-7.26,6.68-14.48,13.37l14.2,15.32Zm14.43-13.32,31.17-28.76-14.18-15.35-31.15,28.76,14.16,15.35Zm31.16-28.75,18.59-17.14-14.16-15.36-18.6,17.14Zm18.59-17.15,31.15-28.75-14.17-15.35-31.15,28.75,14.16,15.35Zm31.15-28.75L293,320.83,278.8,305.45l-18.53,17.09Zm18.5-17.06,4.38-4-14.13-15.39-4.38,4Zm2.27-2.52a6,6,0,0,1-2.81.72l-.08-20.89a14.89,14.89,0,0,0-7,1.78Zm-2.81.72a5.92,5.92,0,0,1-2.82-.7l9.76-18.46a14.85,14.85,0,0,0-7-1.73L292.4,319Zm-5-2.25,24.75,22.83,14.17-15.35-24.76-22.84-14.16,15.36Zm24.76,22.84L332.07,358l14.16-15.36-19.94-18.37-14.16,15.36ZM332.06,358l31.7,29.25,14.17-15.35-31.7-29.26Zm31.7,29.26q9.35,8.61,18.71,17.21l14.13-15.38q-9.36-8.6-18.67-17.19Zm18.69,17.2q11.57,10.67,23.1,21.32l14.18-15.34q-11.55-10.68-23.12-21.34l-14.16,15.36Zm23.79,21.91a6.32,6.32,0,0,1-2.29-3.57l20.36-4.72a14.58,14.58,0,0,0-5.27-8.22ZM404,422.78a6.35,6.35,0,0,1,.49-4.2l18.76,9.18a14.63,14.63,0,0,0,1.11-9.7Zm.47-4.18a5.37,5.37,0,0,1,2.21-2.34l10.18,18.25a15.62,15.62,0,0,0,6.4-6.77l-18.78-9.14Zm2.21-2.34a5.43,5.43,0,0,1,3.16-.65l-2.12,20.78a15.48,15.48,0,0,0,9.14-1.88Zm2.08-.7q-10.69,0-21.4,0l0,20.89h21.48Zm-21.42,0c-1.49,0-2.39,0-3.51,0l-.37,20.89c1.33,0,2.91,0,3.88,0Zm-3.43,0a11.49,11.49,0,0,0-7.43,2.37,11.06,11.06,0,0,0-4.15,9.94l20.78-2.15a9.92,9.92,0,0,1-7.85,10.56,9.26,9.26,0,0,1-1.89.17Zm-11.58,12.3a6.51,6.51,0,0,1,0-.77v.13c0,.19,0,.39,0,.58h20.89v0l0-.21a17.68,17.68,0,0,0-.07-1.82l-20.78,2.12Zm-.06-.06V516h20.89V427.8Zm0,88.24c0,.65,0,.14.06-.46a9.83,9.83,0,0,1,3.27-6.1,9.68,9.68,0,0,1,5.41-2.41c.4,0,.71,0,.07,0v20.89c.18,0,1.1,0,2-.07a11.3,11.3,0,0,0,6.38-2.73,11,11,0,0,0,3.62-7,16.67,16.67,0,0,0,.11-2.14Zm8.81-9H230.77v20.89H381ZM241.16,518.51a9.93,9.93,0,0,1-4.72,7.52,4.86,4.86,0,0,1-.51.29l.23-.12a11,11,0,0,0,2.74-2.05l-15-14.57a9.7,9.7,0,0,1,2.4-1.82h0a11,11,0,0,0-6,8.73Zm-3.79,6.93a21.87,21.87,0,0,1,5-2.58l-7.15-19.63a42.77,42.77,0,0,0-9.75,5Zm4.56-2.44a15.28,15.28,0,0,0,8.26-6.3l-17.55-11.33a5.54,5.54,0,0,1,3-2.29Zm8.26-6.3a15.32,15.32,0,0,0,2.35-10.12L231.79,509a5.58,5.58,0,0,1,.85-3.67l17.55,11.32Zm2.42-9.12a26.25,26.25,0,0,0-2.21-9.95L231.28,506a5.06,5.06,0,0,1,.44,2Zm-2.15-9.83c.06.15.11.31.16.47l-20.21,5.3a18.48,18.48,0,0,0,.82,2.41l19.22-8.19Zm.07.15a9.56,9.56,0,0,1-.93,7.47,9.31,9.31,0,0,1-4.57,4l-7.67-19.44a11.63,11.63,0,0,0-5.84,5,11.32,11.32,0,0,0-1,8.94Zm-5.77,11.58a7.44,7.44,0,0,1,1-.28l-4.78-20.34a27.9,27.9,0,0,0-3.31,1l7.14,19.63Zm1-.29a26.18,26.18,0,0,0,7.45-3.05l-10.81-17.87a5.29,5.29,0,0,1-1.48.6l4.84,20.32Zm6.46-2.52a13.33,13.33,0,0,0,6.73-7.11l-19.38-7.81a7.63,7.63,0,0,1,3.81-4Zm6.73-7.11a13.32,13.32,0,0,0,.08-9.78l-19.49,7.5a7.49,7.49,0,0,1,0-5.53l19.38,7.81Zm.12-9.67a21.46,21.46,0,0,0-6.14-8.82l-13.64,15.82a.69.69,0,0,1,.2.28Zm-5.83-8.55a5.42,5.42,0,0,1,.69.85,9.75,9.75,0,0,1-1.32,12.52c-.6.56-1.06.81-.75.62l-10.91-17.82a15.77,15.77,0,0,0-2.53,1.87,11.15,11.15,0,0,0-1.58,14.82,16.34,16.34,0,0,0,2.14,2.41Zm-1.94,14.3a26.79,26.79,0,0,0,5.74-4.1l-14.3-15.23a5.37,5.37,0,0,1-1.24.88l9.81,18.45Zm5.75-4.12a13.79,13.79,0,0,0,4.25-8.39l-20.74-2.52a7.1,7.1,0,0,1,2.17-4.29L257,491.52Zm4.25-8.39a13.85,13.85,0,0,0-2.1-9.17l-17.56,11.32a7,7,0,0,1-1.08-4.67Zm-1.85-8.74a23.77,23.77,0,0,0-7.07-7.66l-11.86,17.2a2.92,2.92,0,0,1,.85.93ZM252.77,467c-.56-.42-1.13-.82-1.72-1.2l-11.19,17.64.22.15L252.77,467Zm-3.47-2.09a9.44,9.44,0,0,1,3.67,2.63l-15.88,13.57a11.64,11.64,0,0,0,4.51,3.23Zm3.67,2.63a9.32,9.32,0,0,1,2,4l-20.38,4.58a11.46,11.46,0,0,0,2.48,5Zm2,4a9.26,9.26,0,0,1-.1,4.5l-20.16-5.45a11.54,11.54,0,0,0-.12,5.54L255,471.61Zm-.1,4.5a9.27,9.27,0,0,1-2.18,3.95l-15.3-14.24a11.62,11.62,0,0,0-2.68,4.84l20.16,5.46Zm-1.3,2.85a36.2,36.2,0,0,0,2.55-4.16l-18.5-9.7a16.08,16.08,0,0,1-1.11,1.82Zm2.59-4.24a18.09,18.09,0,0,0,1.95-6.86l-20.84-1.62a3,3,0,0,1,.3-1.05Zm1.95-7a14.4,14.4,0,0,0-2.25-8.71l-17.57,11.3a6.45,6.45,0,0,1-1-3.94ZM255.88,459a14.41,14.41,0,0,0-7-5.66l-7.4,19.54a6.56,6.56,0,0,1-3.18-2.58Zm-6.16-5.31a25.72,25.72,0,0,0-8.45-2.39l-2.15,20.78a4.8,4.8,0,0,1,1.53.44Zm-8-2.32a3.72,3.72,0,0,1,1,.24A9.55,9.55,0,0,1,249,458.4a6,6,0,0,1,.19,1.1l-20.84,1.37a13.78,13.78,0,0,0,.36,2.49,11.25,11.25,0,0,0,7.53,8.11,14.75,14.75,0,0,0,2.43.56l3.12-20.66Zm7.4,8.14c0,.19,0,.31,0-.26a20.53,20.53,0,0,0,0-2.52l-20.82,1.68c0-.26,0-.4,0,.09,0,.17,0,.52,0,.89s0,.88,0,1.45l20.85-1.33Zm0-2.17a16,16,0,0,0-1.44-6.27l-19,8.71a5,5,0,0,1-.45-2l20.89-.46Zm-1.44-6.27a15.87,15.87,0,0,0-3.81-5.19l-14,15.53a5.1,5.1,0,0,1-1.21-1.63Zm-3.81-5.19a15.86,15.86,0,0,0-5.57-3.25l-6.64,19.81a5,5,0,0,1-1.76-1Zm-5.57-3.25a16,16,0,0,0-6.4-.76l1.8,20.81a5,5,0,0,1-2-.24l6.64-19.81Zm-4.87-.78a33.43,33.43,0,0,0-5.66.13L230,462.76a13.23,13.23,0,0,1,2.18,0Zm-5.84.15h.06a7.9,7.9,0,0,1,1.09,0,9.38,9.38,0,0,1,7.71,5.13c.06.12.11.24.16.36L217.19,455a12,12,0,0,0,5.33,6.36,12.47,12.47,0,0,0,7.69,1.35Zm9,5.46a26.86,26.86,0,0,0-2.13-4.34l-17.9,10.76a7.8,7.8,0,0,1,.57,1.16l19.46-7.59Zm-2.1-4.29a16.09,16.09,0,0,0-7.1-6.41l-8.77,19a4.7,4.7,0,0,1-2.09-1.88Zm-7.1-6.41a16.13,16.13,0,0,0-9.49-1.26l3.52,20.59a4.74,4.74,0,0,1-2.8-.38Zm-8.88-1.35a24.56,24.56,0,0,0-10,3.37l10.8,17.89a3.58,3.58,0,0,1,1.46-.5Zm-9.71,3.23c-.59.33-.4.19.06,0a9.24,9.24,0,0,1,5.82-.21,9.44,9.44,0,0,1,5.41,4c.4.62.52,1.05.3.48l-19.39,7.76a17.37,17.37,0,0,0,1.43,2.91,11.44,11.44,0,0,0,6.58,5,11.68,11.68,0,0,0,7.45-.44,19.59,19.59,0,0,0,2.64-1.3Zm11.59,4.25a14.82,14.82,0,0,0-6.15-7.22l-10.73,17.93a6,6,0,0,1-2.51-2.95Zm-6.15-7.22a14.84,14.84,0,0,0-9.29-2l2.35,20.76a6.06,6.06,0,0,1-3.79-.82Zm-8-2.08c-.74,0-2.4-.06-4,.06l1.45,20.83c.5,0,.94,0,2.3,0Zm-4,.06a9.3,9.3,0,0,1,4.85,1,9.74,9.74,0,0,1,4.92,6L192,446.31a11.15,11.15,0,0,0,5.63,6.95,11.73,11.73,0,0,0,6.15,1.24l-1.43-20.85Z" transform="translate(-160.07 -298.14)"/></g><path class="cls-4" d="M294.39,449.85h-28a14.74,14.74,0,0,1-3.24-.28,9.37,9.37,0,0,1-7.33-8.86c0-8.44,0-16.89,0-25.33,0-.61.34-.55.73-.55H289c.72,0,.73,0,.73-.7V391.51c0-.86,0-.89.9-.89h4.09c.89,0,.94.05.94.92v22.37c0,.93,0,.93.92.93h35.57c.81,0,.81,0,.81.81v24.56a9.47,9.47,0,0,1-8.14,9.5,12.34,12.34,0,0,1-2,.13Q308.62,449.86,294.39,449.85Z" transform="translate(-160.07 -298.14)"/><path class="cls-4" d="M285.54,413.3a23.22,23.22,0,0,1-2.5-.1,3.38,3.38,0,0,1-2.81-1.89,29.13,29.13,0,0,1-1.71-4.59q-2.41-7.82-4.37-15.75a12.7,12.7,0,0,1-.16-5.28c.29-1.66,1.12-2.14,2.62-1.2a9.05,9.05,0,0,1,3.1,3.23c2.26,4,4.51,7.92,6.58,12,.4.79.77,1.6,1.17,2.39a6,6,0,0,1,.66,2.8c0,2.62,0,5.24,0,7.86,0,.42-.14.58-.56.55C286.91,413.28,286.3,413.3,285.54,413.3Zm26.17,0c-.45,0-.9,0-1.34,0s-.57-.18-.53-.58c.39-3.71.74-7.42,1-11.13.25-3.33.47-6.65.7-10,.16-2.35.3-4.69.45-7,0-.41.05-.82.11-1.22.12-.84.46-1.11,1.31-1.14a27.29,27.29,0,0,1,4.52.37c.77.1.76.11.64.87l-4.2,24.87c-.25,1.48-.51,2.95-.75,4.43-.06.39-.22.57-.64.54S312.15,413.3,311.71,413.3Zm2.9,0h-.29c-.55,0-.57,0-.38-.55.88-2.34,1.75-4.66,2.6-7q3.39-9.35,6.76-18.71c.4-1.1.83-2.19,1.24-3.3.12-.35.26-.4.6-.22,1.18.62,2.37,1.25,3.57,1.83.4.19.42.38.26.75-1.34,3.16-2.92,6.2-4.46,9.27q-4.26,8.47-8.56,16.94C315.66,412.88,315.37,413.48,314.61,413.3Zm3.87,0h-1.25c-.27,0-.64.13-.8-.19s.19-.51.35-.74q2.88-3.94,5.8-7.89,3.65-4.89,7.31-9.77c.37-.48.38-.48.69,0,.73,1.15,1.49,2.29,2.14,3.5a1.43,1.43,0,0,1-.38,1.95,53.24,53.24,0,0,0-4.92,4.58,65.59,65.59,0,0,0-6,7.43l-.33.46a1.39,1.39,0,0,1-1.35.67A11.1,11.1,0,0,0,318.48,413.3Zm-15-5.74c0-2.07-.06-4.14.1-6.22a2.91,2.91,0,0,1,2.91-2.9,2.86,2.86,0,0,1,1.19.26,2.82,2.82,0,0,1,1.8,2.78,38.05,38.05,0,0,1-.14,4.4c-.14,2.25-.32,4.5-.47,6.76-.05.67,0,.68-.73.68-1.32,0-2.65,0-4,0-.5,0-.7-.12-.69-.65C303.55,411,303.52,409.26,303.52,407.56Zm-31.4,5.74h-5.79c-.78,0-.78,0-.69-.76a6.56,6.56,0,0,1,13.05.08c.05.63,0,.68-.63.68Z" transform="translate(-160.07 -298.14)"/><path class="cls-4" d="M271.68,400.46a9.13,9.13,0,0,1-3,6.33c-.27.25-.44.15-.64,0a8.27,8.27,0,0,1-2.89-5.21,8,8,0,0,1,2-6.68c.28-.32.63-.58.93-.88s.45-.19.71,0A8.28,8.28,0,0,1,271.68,400.46ZM263,409.13a8.6,8.6,0,0,1-6.91-3.11c-.26-.3-.17-.45.13-.63a7.71,7.71,0,0,1,5.79-.76,8,8,0,0,1,4.47,2.78c.43.52.42.58-.17.87A7.4,7.4,0,0,1,263,409.13ZM297.92,408c0-1.55,0-3.1,0-4.65,0-.5.18-.65.66-.66,2.17-.06,2.93.69,2.92,2.85,0,2.43-.35,4.85-.57,7.27,0,.35-.16.53-.55.51-.63,0-1.27,0-1.91,0-.44,0-.55-.18-.55-.58C297.93,411.14,297.92,409.56,297.92,408Zm6.82-23.43,1,4.61.1.4a.33.33,0,0,0,.28.26c.19,0,.21-.13.27-.26s.14-.34.23-.51.06-.38.32-.31a.36.36,0,0,1,.24.45l-.23,2.13c0,.16-.14.37,0,.47s.31-.08.46-.14.16-.08.24-.1.23-.14.34-.07.06.25,0,.38l-1,4.55a1.66,1.66,0,0,1-.17.47c-.4.68-.9.74-1.47.21a1.6,1.6,0,0,1-.43-.81c-.61-2.34-1.19-4.68-1.71-7a1,1,0,0,1,.35-1.23,1.15,1.15,0,0,0,.42-.79c.12-.7.26-1.4.41-2.1A.86.86,0,0,1,304.74,384.55Zm11.6,17.54a42.5,42.5,0,0,1,1.13-5.12c1-3.53,2.41-6.91,3.57-10.39l.63-1.89a.58.58,0,0,1,.5-.49c.3-.05.36.2.48.37a1.68,1.68,0,0,1,.14,1.69c-1.93,5.14-3.83,10.28-5.74,15.43a5.55,5.55,0,0,1-.24.56c-.07.14-.19.28-.36.23s-.08-.25-.1-.39Zm-18.39-9c.2.11.18.28.2.41.12.56.23,1.11.36,1.65,0,.16,0,.39.17.46s.28-.16.41-.26l.26-.24c.2-.2.32-.14.39.11.13.41.24.85.38,1.27.08.24.05.56.47.55.18,0,.09.19.05.29-.13.35-.26.7-.42,1s-.11.5.24.57c.51.11.56.4.35.79a4.65,4.65,0,0,1-2.44,2.18c-.28.11-.52.11-.52-.29v-8.36c0-.05,0-.09.08-.17Zm-13.65,7.52a17.17,17.17,0,0,1-1.9,10.84A16.31,16.31,0,0,1,284.3,400.58Zm-5.72,1.49a14,14,0,0,1,1.79-10A14.62,14.62,0,0,1,278.58,402.07Z" transform="translate(-160.07 -298.14)"/><path class="cls-3" d="M210.16,312.66C209,312,208,311.4,207,310.9a14,14,0,0,0-18.68,6.37,13.79,13.79,0,0,0-1,2.8,13.5,13.5,0,0,0,1,9.39c.33.7.68,1.38,1.05,2.11-.77.24-1.52.47-2.27.72a13.63,13.63,0,0,0-9.69,10.65,14,14,0,0,0,10.8,16.29,13.4,13.4,0,0,0,9.8-1.57l1.26-.71a.35.35,0,0,1,.11,0l12.34,13.19L247,338c-4.13-4.42-8.22-8.82-12.37-13.24A13.95,13.95,0,0,0,218.13,303,14.45,14.45,0,0,0,210.16,312.66Z" transform="translate(-160.07 -298.14)"/></svg>