<svg width="2644" height="2341" viewBox="0 0 2644 2341" fill="none" xmlns="http://www.w3.org/2000/svg">
<path fill-rule="evenodd" clip-rule="evenodd" d="M557.784 1.0838C509.584 8.38861 463.825 41.8693 441.833 85.9242C438.661 92.2784 434.714 101.933 433.062 107.38C431.41 112.826 429.903 117.522 429.713 117.816C429.525 118.109 420.76 113.561 410.24 107.71C359.832 79.6757 311.042 76.4706 264.775 98.1556C247.295 106.347 237.925 112.778 223.828 126.259C209.71 139.761 200.072 153.113 191.502 171.04C180.613 193.816 177.691 207.416 177.691 235.288C177.691 264.404 180.537 276.508 193.941 304.385C198.933 314.768 202.823 323.459 202.582 323.697C202.343 323.935 193.606 326.882 183.168 330.248C172.73 333.614 159.734 338.607 154.288 341.343C114.044 361.566 86.4378 395.956 75.5376 439.445C70.4465 459.755 70.5059 494.281 75.6663 513.386C89.2977 563.851 127.253 604.115 175.986 619.809C198.067 626.918 217.537 629.037 238.004 626.556C259.849 623.909 272.841 619.784 293.416 608.972C302.769 604.056 311.026 600.034 311.762 600.034C312.5 600.034 343.005 632.006 379.553 671.085C445.978 742.108 446.003 742.133 449.497 739.028C454.618 734.475 565.567 633.506 574.287 625.462C583.162 617.276 658.582 548.519 745.057 469.78C779.53 438.39 812.465 408.247 818.245 402.791L828.755 392.873L761.93 321.367L695.103 249.862L703.596 237.998C714.096 223.326 723.272 203.958 727.946 186.601C733.108 167.419 733.081 136.056 727.886 115.632C713.623 59.5586 672.218 18.9398 614.183 4.08923C599.104 0.230522 572.699 -1.17729 557.784 1.0838ZM1312.46 75.2608C1308.64 76.0233 1303.81 77.5565 1301.73 78.6673C1299.64 79.778 1284.94 92.6679 1269.06 107.311C1183.77 185.932 189.583 1103.15 79.6765 1204.62C-0.661284 1278.78 -0.0275801 1278.03 0.00212519 1298.9C0.0301801 1319.73 11.8644 1336.29 32.7489 1344.74L42.068 1348.5L188.944 1348.92L335.82 1349.33L338.708 1352.82C341.381 1356.04 341.598 1363.12 341.621 1448.13C341.635 1499.26 342.301 1540.99 343.122 1542.29C344.299 1544.15 350.587 1544.65 374.041 1544.77C402.615 1544.91 403.724 1545.04 411.733 1549.31C422.929 1555.27 431.335 1564.4 436.542 1576.26C441.665 1587.93 446.477 1593.61 451.215 1593.56C453.099 1593.54 460.211 1590.56 467.018 1586.94C500.981 1568.88 514.708 1564.83 542.106 1564.76C561.57 1564.71 562.09 1564.81 572.341 1570.37C586.583 1578.09 594.293 1587.51 606.22 1611.74C613.437 1626.4 617.561 1632.92 620.495 1634.32C623.505 1635.75 629.083 1635.88 641.124 1634.8C663.566 1632.78 691.671 1634.48 702.592 1638.5C714.879 1643.03 727.762 1655.34 733.67 1668.21C738.09 1677.83 738.501 1680.44 739.29 1703.91C740.267 1732.98 741.041 1734.52 755.477 1736.31C769.564 1738.05 789.584 1743.32 802.922 1748.79C831.516 1760.51 842.359 1781.82 834.023 1809.91C830.599 1821.46 825.229 1832.06 814.201 1849.05C801.618 1868.45 801.969 1870.41 820.18 1882.52C839.939 1895.65 858.244 1915.72 867.837 1934.75C872.412 1943.83 872.534 1957.78 868.116 1966.44C863.524 1975.44 846.149 1990.67 828.407 2001.25C810.859 2011.71 807.377 2015.6 810.409 2021.36C811.516 2023.46 818.862 2031.94 826.732 2040.2C844.474 2058.82 855.544 2079.12 855.544 2093.02C855.544 2114.84 834.607 2129.08 780.606 2143.99C772.002 2146.37 763.646 2149.5 762.041 2150.96C757.788 2154.81 758.405 2160.62 764.991 2178.82C773.286 2201.74 775.923 2215.48 776.203 2237.26C776.486 2259.24 774.129 2266.45 762.564 2279C755.783 2286.36 753.035 2287.83 720.473 2301.57C701.868 2309.43 683.082 2319.74 665.053 2332L652.676 2340.41L1475.35 2340.84C2247.36 2341.23 2298.14 2341.08 2300.08 2338.46C2301.72 2336.23 2302.14 2234.8 2302.14 1844.35C2302.14 1438.05 2302.52 1352.72 2304.33 1351.22C2305.88 1349.93 2349.9 1349.27 2454.92 1348.95L2603.32 1348.5L2612.47 1344.21C2625.25 1338.22 2632.87 1330.98 2638.72 1319.26C2645.47 1305.76 2645.76 1291.29 2639.53 1278.79C2635.21 1270.11 2602.03 1239.06 2301.32 962.252C2255.03 919.643 2116.13 791.561 1992.66 677.627C1424.85 153.666 1344.32 79.7087 1339.45 77.7233C1332.02 74.6964 1320.52 73.6467 1312.46 75.2608ZM1476.34 313.959C1560.66 391.723 1653.41 477.23 1682.46 503.979C1711.5 530.726 1738.61 555.698 1742.69 559.474C1746.78 563.251 1770.54 585.172 1795.5 608.189C1820.46 631.207 1844.97 653.861 1849.96 658.532C1854.95 663.202 1893.57 698.847 1935.78 737.742C1977.98 776.638 2016.6 812.268 2021.59 816.922C2043.41 837.255 2101.15 890.539 2180.85 963.875C2287.89 1062.38 2298.46 1072.1 2303.03 1076.18C2305.06 1078 2352.17 1121.45 2407.72 1172.73L2508.71 1265.98L2398.41 1266.81L2288.11 1267.63L2277.15 1271.9C2248.48 1283.07 2227.63 1307 2221.49 1335.79C2220.13 1342.18 2219.63 1468.04 2219.63 1801.63V2258.72H1539.96H860.3L859.299 2234.3C858.748 2220.88 857.873 2208.78 857.353 2207.43C856.683 2205.69 859.157 2203.63 865.921 2200.31C902.322 2182.46 923.135 2159.24 933.829 2124.55C941.389 2100.04 939.648 2074.16 928.585 2046.6L922.782 2032.15L929.39 2023.79C953.529 1993.25 960.5 1951.76 948.093 1912.49C943.698 1898.57 931.179 1877.18 916.978 1859.31L908.449 1848.59L911.994 1837.86C921.122 1810.24 921.51 1776.27 912.981 1751.52C905.939 1731.09 899.039 1720.34 881.903 1703.08C868.113 1689.19 865.284 1687.2 847.247 1678.62C836.446 1673.49 825.821 1668.41 823.639 1667.34C820.649 1665.87 818.931 1662.68 816.673 1654.41C812.615 1639.53 806.999 1627.24 798.558 1614.76C772.371 1576.04 733.307 1554.23 684.871 1551.29L667.253 1550.22L662.5 1542.61C655.341 1531.15 632.496 1509.46 619.571 1501.85C580.344 1478.75 538.17 1474.41 489.058 1488.42L476.172 1492.09L463.509 1483.61C456.545 1478.94 444.833 1473 437.483 1470.41L424.119 1465.69L424.086 1407.92C424.049 1343.74 423.087 1335.05 413.943 1316.32C410.509 1309.28 404.685 1301.56 397.018 1293.87C385.218 1282.03 378.184 1277.53 361.479 1271.16C352.582 1267.77 349.245 1267.65 243.678 1266.83L135.034 1265.98L172.677 1231.32C193.38 1212.26 311.706 1103.11 435.623 988.768C559.54 874.426 703.629 741.509 755.819 693.397C808.009 645.285 851.082 605.497 851.536 604.978C851.99 604.46 905.088 555.457 969.532 496.085C1033.98 436.71 1090.79 384.311 1095.78 379.643C1157.41 322.017 1320.4 172.572 1321.62 172.572C1322.4 172.572 1392.02 236.196 1476.34 313.959ZM1539.84 877.171C1535.94 881.069 1535.64 883.726 1531.37 951.576C1526.16 1034.23 1520.46 1109.91 1515.64 1160.05C1513.24 1185.13 1511.7 1206.79 1512.23 1208.17C1513.02 1210.22 1516.59 1210.69 1531.2 1210.69C1543.63 1210.69 1549.71 1210.05 1550.85 1208.63C1551.75 1207.5 1564.82 1133.42 1579.89 1044.02C1601.37 916.565 1606.85 881.061 1605.26 879.585C1602.54 877.05 1576.83 874.005 1558.16 874.005C1545.43 874.005 1542.5 874.51 1539.84 877.171ZM1670.92 889.272C1670.52 890.407 1668.27 896.534 1665.9 902.888C1663.54 909.242 1642.78 966.43 1619.78 1029.97C1596.78 1093.51 1572.7 1159.61 1566.26 1176.86C1559.83 1194.11 1554.57 1208.77 1554.56 1209.46C1554.56 1210.14 1558.22 1210.69 1562.7 1210.69C1569.71 1210.69 1571.27 1210.07 1573.99 1206.15C1578.48 1199.69 1695.82 966.75 1708 940.132C1713.58 927.937 1718.5 916.053 1718.94 913.725C1719.68 909.754 1718.36 908.792 1697.79 898.265C1675.29 886.752 1672.15 885.699 1670.92 889.272ZM1127.3 898.103C1122.42 904.307 1121.34 911.581 1121.47 937.547C1121.58 959.963 1121.85 961.64 1130.26 993.662C1159.36 1104.43 1178.91 1168.33 1190.5 1190.52C1193.5 1196.25 1200.61 1202.86 1208 1206.78C1213.02 1209.44 1217.75 1209.84 1244.31 1209.86L1274.84 1209.87L1275.34 1162.01C1275.69 1129.55 1275.22 1111.22 1273.9 1105.07C1270.83 1090.77 1243.61 1037.56 1201.02 962.604C1185.11 934.611 1177.03 922.177 1169.54 914.167C1151.75 895.142 1134.72 888.668 1127.3 898.103ZM1641.34 896.889C1640.41 898.382 1624.96 942.388 1605.61 998.613C1589.12 1046.51 1578.2 1095.26 1584.41 1093.19C1587.01 1092.32 1653.58 915.065 1653.58 909.011C1653.58 900.183 1644.72 891.413 1641.34 896.889ZM1453.06 904.126C1452.57 906.167 1451.16 913.193 1449.93 919.736C1448.4 927.88 1446.34 933.256 1443.37 936.78C1440.99 939.61 1439.04 943.073 1439.04 944.472C1439.04 948.6 1458.59 1027.24 1460.51 1030.82C1463.01 1035.49 1469.72 1039.49 1473.21 1038.38C1474.84 1037.86 1477.13 1035.91 1478.29 1034.05C1480.89 1029.89 1492.47 976.403 1491.07 975.009C1490.52 974.457 1487.88 974.835 1485.19 975.849C1482.51 976.862 1480.04 977.199 1479.71 976.6C1479.37 975.999 1479.68 971.051 1480.39 965.604C1482.46 949.623 1482.25 944.974 1479.49 944.974C1478.14 944.974 1475.9 947.712 1474.5 951.059C1472.27 956.4 1471.66 956.849 1469.54 954.731C1468.21 953.403 1464.71 940.638 1461.75 926.364C1458.79 912.091 1455.83 900.412 1455.16 900.412C1454.5 900.412 1453.55 902.084 1453.06 904.126ZM1294.58 966.842C1294.16 967.978 1293.62 1026.84 1293.4 1097.64L1292.99 1226.37L1110.71 1226.79C1005.6 1227.03 927.796 1227.84 926.941 1228.7C926.081 1229.56 925.558 1290.82 925.698 1374.34C925.959 1529.62 925.896 1528.42 934.712 1547.7C946.53 1573.53 967.673 1592.12 996.544 1602.06C1015.3 1608.51 1030.92 1608.77 1357.52 1608.05L1672.56 1607.35L1685.45 1603.81C1704.58 1598.57 1716.95 1591.27 1732.16 1576.27C1742.49 1566.09 1746.91 1560.22 1751.49 1550.64C1762.89 1526.76 1762.56 1532.35 1762.09 1372.14L1761.67 1228.02L1560.34 1227.2L1359 1226.37L1358.58 1097.8C1358.28 1006.14 1357.63 968.582 1356.31 966.999C1353.74 963.901 1295.75 963.753 1294.58 966.842ZM1381.28 1038.95V1086.91H1384.85C1393.65 1086.91 1414.29 1067.88 1414.29 1059.76C1414.29 1058.31 1412.43 1056.29 1410.16 1055.25C1405.2 1052.99 1405.24 1053.52 1409.33 1042.76C1412.06 1035.57 1412.21 1034.1 1410.21 1034.1C1408.7 1034.1 1406.64 1030.3 1404.66 1023.85C1402.93 1018.22 1400.62 1013.31 1399.53 1012.95C1398.44 1012.59 1395.81 1013.92 1393.69 1015.91C1389.21 1020.12 1389.39 1020.42 1386.1 1003.11C1385.02 997.416 1383.49 992.36 1382.71 991.874C1381.92 991.384 1381.28 1012.38 1381.28 1038.95ZM1051.76 1007.33C1038 1020.52 1027.97 1041.36 1025.76 1061.33C1024.19 1075.55 1028.29 1096.5 1035.51 1111.09C1041.69 1123.6 1056.9 1141.38 1061.43 1141.38C1065.81 1141.38 1080.41 1123.91 1086.67 1111.18C1100.88 1082.31 1100.18 1050.71 1084.74 1024.33C1079.6 1015.55 1064.86 999.438 1061.97 999.438C1060.88 999.438 1056.29 1002.99 1051.76 1007.33ZM1691.95 1058.34C1670.29 1087.21 1640.04 1127.92 1624.74 1148.8C1609.43 1169.68 1593.64 1191.11 1589.65 1196.42C1585.66 1201.73 1582.79 1207.11 1583.27 1208.38C1584.48 1211.52 1625.2 1211.73 1629.22 1208.63C1630.69 1207.5 1638.35 1197.66 1646.25 1186.76C1676.22 1145.45 1710.09 1107.84 1743.8 1078.44C1763.09 1061.62 1764.83 1058.07 1759.35 1046.87C1754.2 1036.35 1735.3 1007.15 1733.19 1006.45C1732.17 1006.11 1713.61 1029.46 1691.95 1058.34ZM1468.03 1050.8C1458.86 1052.95 1450.78 1059.7 1446.72 1068.58C1443.42 1075.8 1443.22 1079.35 1442.63 1139.38C1442.29 1174.13 1442.47 1204.4 1443.03 1206.63L1444.05 1210.69H1472.05C1499.75 1210.69 1500.05 1210.65 1500.81 1206.98C1501.89 1201.78 1506.65 1132.12 1507.84 1103.92C1509.01 1076.43 1507.4 1068.39 1499.05 1059.78C1494.35 1054.94 1479.78 1048.35 1475.46 1049.12C1474.94 1049.21 1471.6 1049.97 1468.03 1050.8ZM1383.1 1098.14C1380.94 1102.18 1380.55 1205.34 1382.68 1208.7C1383.66 1210.24 1388.08 1210.7 1398.68 1210.35L1413.32 1209.87L1414.47 1204.09C1417 1191.38 1421.26 1133.9 1420.53 1122.44C1419.31 1103.37 1413.38 1097.02 1395.48 1095.59C1386.03 1094.83 1384.73 1095.1 1383.1 1098.14ZM957.727 1115.05C946.182 1117.08 931.799 1122.63 928.431 1126.35C925.822 1129.23 925.918 1129.71 930.129 1134.71C946.639 1154.34 979.617 1167.72 1005.84 1165.43C1018.86 1164.3 1036.14 1159.1 1041.6 1154.68L1045.24 1151.74L1036.48 1142.48C1031.67 1137.38 1024.1 1130.89 1019.66 1128.04C1003.51 1117.67 975.834 1111.87 957.727 1115.05ZM1079.06 1143.54C1065.51 1148.16 1051.49 1158.77 1043.98 1170.09C1037.34 1180.09 1031.42 1196.5 1031.42 1204.88V1210.73L1101.97 1210.3L1172.52 1209.87L1173.01 1204.89C1173.74 1197.4 1168.02 1180.99 1160.96 1170.36C1143.87 1144.61 1109.22 1133.26 1079.06 1143.54Z" fill="white"/>
</svg>
