<svg xmlns="http://www.w3.org/2000/svg" width="733" height="383" fill="none" viewBox="0 0 733 383">
  <rect width="733" height="383" fill="#E6E6E7" rx="6"/>
  <rect width="78" height="78" x="328" y="152" fill="#DBDBDB" rx="7"/>
  <path fill="#9D9D9D" d="M371.625 209.865h-10.25c-9.276 0-13.24-3.963-13.24-13.24v-10.25c0-9.276 3.964-13.239 13.24-13.239h10.25c9.276 0 13.24 3.963 13.24 13.239v10.25c0 9.277-3.964 13.24-13.24 13.24Zm-10.25-34.167c-7.875 0-10.677 2.802-10.677 10.677v10.25c0 7.876 2.802 10.677 10.677 10.677h10.25c7.875 0 10.677-2.801 10.677-10.677v-10.25c0-7.875-2.802-10.677-10.677-10.677h-10.25Z"/>
  <path fill="#9D9D9D" d="M361.375 189.365a4.696 4.696 0 0 1-4.698-4.698 4.695 4.695 0 0 1 4.698-4.698 4.695 4.695 0 0 1 4.698 4.698 4.696 4.696 0 0 1-4.698 4.698Zm0-6.834a2.136 2.136 0 1 0 .002 4.272 2.136 2.136 0 0 0-.002-4.272Zm-10.814 22.124a1.275 1.275 0 0 1-.7-2.341l8.422-5.654c1.845-1.248 4.39-1.094 6.064.324l.564.496c.854.734 2.306.734 3.143 0l7.107-6.099c1.811-1.555 4.664-1.555 6.492 0l2.784 2.391c.53.462.598 1.265.137 1.811a1.292 1.292 0 0 1-1.811.137l-2.784-2.392c-.855-.734-2.307-.734-3.161 0l-7.106 6.099c-1.811 1.555-4.664 1.555-6.492 0l-.564-.495c-.786-.667-2.084-.735-2.955-.137l-8.422 5.655a1.397 1.397 0 0 1-.718.205ZM333.369 264l4.64-9.183v-.075h-5.386v-1.651h7.431v1.688L335.42 264h-2.051Zm9.097 0 4.639-9.183v-.075h-5.385v-1.651h7.431v1.688L344.516 264h-2.05Zm12.07.149c-.767 0-1.449-.131-2.045-.394-.594-.263-1.062-.629-1.407-1.097a2.847 2.847 0 0 1-.548-1.625h2.002c.018.295.116.552.293.772.178.217.414.386.709.506.295.121.625.182.991.182.39 0 .736-.068 1.038-.203.302-.138.538-.33.709-.575.17-.245.254-.528.25-.847a1.47 1.47 0 0 0-.256-.874 1.71 1.71 0 0 0-.756-.591c-.327-.142-.721-.213-1.182-.213h-.965v-1.523h.965c.38 0 .712-.066.996-.198.287-.131.513-.316.676-.554.163-.241.243-.52.24-.836a1.457 1.457 0 0 0-.208-.804 1.397 1.397 0 0 0-.591-.538 1.943 1.943 0 0 0-.89-.192c-.334 0-.642.06-.927.181a1.687 1.687 0 0 0-.687.517c-.174.22-.266.483-.277.788h-1.901c.014-.611.19-1.147.527-1.608a3.391 3.391 0 0 1 1.364-1.087c.568-.263 1.205-.394 1.912-.394.728 0 1.36.136 1.896.41.54.27.957.634 1.252 1.092.295.458.442.964.442 1.518.004.614-.177 1.129-.543 1.545-.362.415-.838.687-1.428.815v.085c.767.106 1.355.391 1.763.852.412.458.616 1.028.613 1.71 0 .611-.174 1.158-.522 1.641-.345.479-.82.856-1.428 1.129-.603.273-1.296.41-2.077.41Zm8.311-2.535.122-2.158-1.811 1.188-.649-1.129 1.933-.97-1.933-.969.649-1.129 1.811 1.188-.122-2.158h1.294l-.117 2.158 1.811-1.188.65 1.129-1.939.969 1.939.97-.65 1.129-1.811-1.188.117 2.158h-1.294Zm9.604 2.535c-.767 0-1.449-.131-2.045-.394-.593-.263-1.062-.629-1.407-1.097a2.847 2.847 0 0 1-.548-1.625h2.002c.018.295.116.552.293.772.178.217.414.386.709.506.295.121.625.182.991.182.39 0 .737-.068 1.038-.203.302-.138.538-.33.709-.575.17-.245.254-.528.25-.847a1.47 1.47 0 0 0-.255-.874 1.72 1.72 0 0 0-.757-.591c-.327-.142-.721-.213-1.182-.213h-.965v-1.523h.965c.38 0 .712-.066.996-.198.287-.131.513-.316.676-.554.164-.241.243-.52.24-.836a1.457 1.457 0 0 0-.208-.804 1.397 1.397 0 0 0-.591-.538 1.943 1.943 0 0 0-.89-.192c-.334 0-.642.06-.927.181a1.687 1.687 0 0 0-.687.517c-.174.22-.266.483-.277.788h-1.901c.014-.611.19-1.147.527-1.608a3.391 3.391 0 0 1 1.364-1.087c.568-.263 1.205-.394 1.912-.394.728 0 1.36.136 1.896.41.54.27.957.634 1.252 1.092.295.458.442.964.442 1.518.004.614-.177 1.129-.543 1.545-.362.415-.838.687-1.428.815v.085c.767.106 1.355.391 1.763.852.412.458.617 1.028.613 1.71 0 .611-.174 1.158-.522 1.641-.344.479-.82.856-1.428 1.129-.603.273-1.296.41-2.077.41Zm9.733 0c-.792 0-1.495-.133-2.109-.399-.611-.267-1.09-.631-1.438-1.092a2.567 2.567 0 0 1-.512-1.582 2.622 2.622 0 0 1 .299-1.263c.202-.383.475-.703.82-.959a2.647 2.647 0 0 1 1.161-.495v-.075a2.309 2.309 0 0 1-1.364-.857 2.48 2.48 0 0 1-.511-1.561 2.487 2.487 0 0 1 .469-1.502c.316-.44.749-.787 1.3-1.039.55-.255 1.179-.383 1.885-.383.7 0 1.323.128 1.87.383.55.252.984.599 1.3 1.039.319.44.479.941.479 1.502 0 .59-.176 1.11-.527 1.561a2.304 2.304 0 0 1-1.348.857v.075c.426.071.81.236 1.151.495.344.256.617.576.82.959.206.384.309.805.309 1.263 0 .589-.174 1.116-.522 1.582-.348.461-.828.825-1.438 1.092-.608.266-1.305.399-2.094.399Zm0-1.523c.409 0 .764-.07 1.066-.208.301-.142.536-.341.703-.597.167-.255.252-.55.255-.884a1.651 1.651 0 0 0-.271-.921 1.781 1.781 0 0 0-.719-.634 2.257 2.257 0 0 0-1.034-.229c-.39 0-.738.076-1.044.229a1.816 1.816 0 0 0-.724.634 1.618 1.618 0 0 0-.256.921 1.55 1.55 0 0 0 .245.884c.167.253.401.45.703.592.306.142.664.213 1.076.213Zm0-4.97c.334 0 .629-.068.884-.203a1.532 1.532 0 0 0 .842-1.4 1.551 1.551 0 0 0-.224-.821 1.434 1.434 0 0 0-.607-.548 1.943 1.943 0 0 0-.895-.197c-.344 0-.648.065-.911.197a1.44 1.44 0 0 0-.607.548 1.525 1.525 0 0 0-.208.821c-.003.316.068.594.213.836.15.238.354.426.613.564.263.135.563.203.9.203Zm9.72 6.493c-.767 0-1.449-.131-2.045-.394-.593-.263-1.062-.629-1.407-1.097a2.847 2.847 0 0 1-.548-1.625h2.003c.017.295.115.552.293.772.177.217.413.386.708.506.295.121.625.182.991.182.39 0 .737-.068 1.039-.203a1.71 1.71 0 0 0 .708-.575c.17-.245.254-.528.25-.847a1.47 1.47 0 0 0-.255-.874c-.174-.252-.427-.449-.757-.591-.326-.142-.721-.213-1.182-.213h-.964v-1.523h.964c.38 0 .712-.066.996-.198.287-.131.513-.316.676-.554.164-.241.244-.52.24-.836a1.448 1.448 0 0 0-.208-.804 1.397 1.397 0 0 0-.591-.538 1.943 1.943 0 0 0-.89-.192c-.333 0-.642.06-.926.181a1.684 1.684 0 0 0-.688.517c-.174.22-.266.483-.277.788h-1.901c.014-.611.19-1.147.527-1.608a3.398 3.398 0 0 1 1.364-1.087c.568-.263 1.205-.394 1.912-.394.728 0 1.36.136 1.896.41.54.27.957.634 1.252 1.092.295.458.442.964.442 1.518.004.614-.177 1.129-.543 1.545-.362.415-.838.687-1.428.815v.085c.767.106 1.355.391 1.764.852.411.458.616 1.028.612 1.71 0 .611-.174 1.158-.522 1.641-.344.479-.82.856-1.427 1.129-.604.273-1.297.41-2.078.41Z"/>
</svg>
