<svg width="36" height="32" viewBox="0 0 36 32" fill="none" xmlns="http://www.w3.org/2000/svg">
<g clip-path="url(#clip0_408_29150)">
<path d="M9.5 1.517C9.5 1.23484 9.59207 1.00899 9.78514 0.811012C10.0126 0.590049 10.2434 0.5 10.494 0.5H34.506C34.7566 0.5 34.9874 0.590058 35.2149 0.811047C35.4079 1.00901 35.5 1.23485 35.5 1.517V30.482C35.5 30.7657 35.4076 30.9913 35.2149 31.188C34.9874 31.4099 34.7567 31.5 34.506 31.5H10.494C10.2425 31.5 10.011 31.4093 9.78267 31.1866C9.6913 31.0959 9.61916 30.9877 9.57057 30.8685C9.5218 30.7488 9.49777 30.6205 9.49993 30.4913L9.5 30.4913V30.483V25.143V24.643H9H1.494C1.23945 24.643 1.00848 24.5555 0.784517 24.349C0.601615 24.1526 0.499828 23.894 0.5 23.6253V23.625V8.375C0.5 8.11149 0.587963 7.87395 0.788827 7.64699C1.01144 7.44334 1.24109 7.357 1.494 7.357H9H9.5V6.857V1.517ZM7.24379 22.2359L8.99264 19.0026L10.681 22.2298L10.8213 22.498H11.124H14.346H15.2308L14.7743 21.74L11.3833 16.1094L14.7029 10.57L15.1565 9.813H14.274H11.196H10.8961L10.7549 10.0776L9.12343 13.1351C8.93623 12.7689 8.7439 12.4052 8.5465 12.0444C8.24022 11.3856 7.92176 10.7325 7.59127 10.0856L7.45205 9.813H7.146H3.888H3.01756L3.45609 10.5649L6.70528 16.1359L3.17706 21.7313L2.69362 22.498H3.6H6.804H7.10201L7.24379 22.2359ZM21.384 30.214H21.884V29.714V25.143V24.643H21.384H11.25H10.75V25.143V29.714V30.214H11.25H21.384ZM21.384 23.357H21.884V22.857V17.152V16.652H21.384H18H17.5V17.152V22.857V23.357H18H21.384ZM21.884 9.142V8.642H21.384H18H17.5V9.142V14.865V15.365H18H21.384V14.867H21.884V14.865V14.365V9.142ZM21.384 7.357H21.884V6.857V2.286V1.786H21.384H11.25H10.75V2.286V6.857V7.357H11.25H21.384ZM33.75 30.214H34.25V29.714V25.143V24.643H33.75H23.634H23.134V25.143V29.714V30.214H23.634H33.75ZM33.75 23.357H34.25V22.857V17.152V16.652H33.75H23.634H23.134V17.152V22.857V23.357H23.634H33.75ZM34.25 9.142V8.642H33.75H23.634H23.134V9.142V14.865V15.365H23.634H33.75V14.867H34.25V14.865V14.365V9.142ZM33.75 7.357H34.25V6.857V2.286V1.786H33.75H23.634H23.134V2.286V6.857V7.357H23.634H33.75Z" fill="black" stroke="black"/>
</g>
<defs>
<clipPath id="clip0_408_29150">
<rect width="36" height="32" fill="white"/>
</clipPath>
</defs>
</svg>
