<svg width="105" height="105" viewBox="0 0 105 105" fill="none" xmlns="http://www.w3.org/2000/svg">
<path fill-rule="evenodd" clip-rule="evenodd" d="M48.8159 0.0453128C44.9818 0.4342 43.4517 0.648404 41.3345 1.093C25.7955 4.35482 12.4391 14.9153 5.19783 29.6651C1.39987 37.4012 -0.233415 44.966 0.0267169 53.6166C0.261004 61.4074 1.88357 68.014 5.29575 75.0703C7.99541 80.6529 10.818 84.7017 15.091 89.1205C22.7849 97.0772 31.9275 102.073 42.4347 104.063C69.0108 109.096 94.9647 93.4115 102.786 67.5913C104.681 61.3384 105.379 54.6508 104.805 48.2686C103.874 37.9284 100.511 28.9151 94.6094 20.9414C92.5927 18.2169 87.3444 12.9501 84.5985 10.8949C76.9686 5.18472 67.8879 1.53212 58.3765 0.347174C56.4364 0.105433 50.1723 -0.0923744 48.8159 0.0453128ZM54.7985 4.1217C58.1122 5.81283 61.1688 11.1595 63.5401 19.4121C64.3663 22.2878 65.9096 29.3616 66.2664 31.9087L66.404 32.8912L65.4896 33.0184C60.1665 33.7593 50.2891 33.9643 44.117 33.4619C39.1889 33.0606 38.625 32.9717 38.625 32.5958C38.625 32.4445 38.8645 31.0138 39.1574 29.4164C42.2443 12.5778 47.2564 3.10912 52.8339 3.57788C53.426 3.62749 54.31 3.87239 54.7985 4.1217ZM43.2254 6.38439C39.9889 11.3376 37.2646 19.6709 35.6669 29.5049C35.4275 30.9783 35.192 32.2236 35.1435 32.2721C34.7367 32.6791 22.2724 29.4149 21.5168 28.7036C21.4016 28.5951 22.0081 27.139 23.0179 25.0993C27.8037 15.4343 34.0905 8.99288 42.1971 5.44938C43.0638 5.07037 43.8892 4.75926 44.0314 4.75779C44.1735 4.75632 43.8108 5.48827 43.2254 6.38439ZM64.5751 6.33625C66.0775 7.08376 68.1577 8.32988 69.1978 9.10576C73.0195 11.9568 77.069 16.5083 79.7827 21.003C81.3242 23.5558 83.6853 28.5012 83.4626 28.7101C82.7106 29.4166 70.2467 32.6763 69.8427 32.2721C69.7941 32.2236 69.5586 30.9783 69.3193 29.5049C67.7179 19.6499 64.9981 11.339 61.7439 6.35832C60.6689 4.71344 60.666 4.70419 61.2531 4.8404C61.5777 4.91587 63.0727 5.58896 64.5751 6.33625ZM30.0249 9.51441C26.5625 12.7216 22.6655 18.12 20.1827 23.1486C19.3836 24.7672 18.6123 26.3907 18.4685 26.7564L18.2072 27.4215L17.4373 27.1085C16.186 26.6002 12.3597 24.434 12.3597 24.2341C12.3597 23.7965 15.3739 20.2143 17.7058 17.8803C21.3519 14.2313 24.0372 12.1792 28.5244 9.61258C29.9608 8.79087 31.2251 8.11862 31.3339 8.11862C31.4428 8.11862 30.8538 8.74672 30.0249 9.51441ZM76.4618 9.61426C81.0832 12.2604 84.5397 14.933 87.9307 18.4815C89.8497 20.4894 92.6265 23.8913 92.6265 24.2341C92.6265 24.4326 88.8033 26.5992 87.5676 27.1007L86.8162 27.4058L85.8981 25.3823C83.1495 19.3234 79.7743 14.349 75.5755 10.1682C74.4433 9.04102 73.5919 8.11862 73.6835 8.11862C73.7751 8.11862 75.0254 8.79171 76.4618 9.61426ZM12.3653 28.3019C13.3781 28.8819 14.8395 29.6432 15.613 29.9941C16.58 30.4328 16.9842 30.7233 16.9071 30.9242C16.5905 31.75 15.2545 36.8562 14.899 38.5996C14.2734 41.6681 13.828 45.1584 13.6851 48.111L13.5555 50.7911H8.43414H3.31261L3.43869 49.3722C4.13777 41.4978 5.97045 35.1577 9.32969 28.9926C9.85268 28.0328 10.3351 27.2477 10.4022 27.2477C10.469 27.2477 11.3523 27.7221 12.3653 28.3019ZM96.3036 30.3109C99.3546 36.384 100.89 41.9638 101.547 49.3722L101.674 50.7911H96.552H91.4307L91.301 48.111C91.1581 45.1584 90.7127 41.6681 90.0872 38.5996C89.7331 36.8637 88.3961 31.751 88.0817 30.9314C88.0074 30.7376 88.5335 30.3804 89.7215 29.8179C90.6837 29.3626 92.1327 28.5997 92.9417 28.1228C93.7506 27.6458 94.5071 27.2843 94.6226 27.3194C94.7382 27.3545 95.4947 28.7007 96.3036 30.3109ZM28.2247 34.3816C29.9587 34.8253 32.1124 35.3071 33.0109 35.452C33.9094 35.597 34.6747 35.7731 34.7114 35.8436C34.7482 35.9138 34.6589 37.1538 34.5133 38.599C34.3675 40.0442 34.1899 42.6928 34.1187 44.4849C34.0475 46.2769 33.9367 48.4288 33.8728 49.2671L33.7562 50.7911H25.3694H16.9824L16.9826 49.6875C16.9832 45.5418 18.1695 38.4495 19.7045 33.4156L20.1634 31.9108L22.6178 32.7428C23.9677 33.2004 26.4908 33.9378 28.2247 34.3816ZM85.6519 34.7101C86.962 39.4861 87.6655 43.672 87.9216 48.2161L88.0668 50.7911H79.6596H71.2526L71.12 49.6875C71.0471 49.0807 70.9866 47.7662 70.9857 46.7667C70.9843 45.3318 70.6384 40.1022 70.294 36.3088C70.2503 35.8251 70.3602 35.7826 73.0851 35.2306C76.3224 34.5747 79.6016 33.6904 82.6457 32.6517C84.0734 32.1647 84.7904 32.0091 84.8824 32.1664C84.9568 32.2938 85.3031 33.4384 85.6519 34.7101ZM43.5629 36.8322C48.415 37.2503 59.8221 37.1338 64.042 36.6232C65.4824 36.449 66.7093 36.3548 66.7686 36.4139C66.9936 36.639 67.4036 41.8295 67.5431 46.2191L67.6883 50.7911H52.4941H37.2997L37.4281 46.4293C37.5464 42.405 37.8654 37.928 38.1184 36.738C38.2096 36.3092 38.3129 36.2598 38.8971 36.3659C39.2675 36.4332 41.3671 36.6432 43.5629 36.8322ZM13.6918 56.9398C13.9524 62.2543 15.0526 68.1042 16.8926 73.9594C16.9809 74.24 16.6962 74.4603 15.6063 74.9545C14.8366 75.3037 13.3519 76.0789 12.3067 76.6772C10.0464 77.9712 10.4343 78.2332 8.37342 74.0193C5.52373 68.1917 4.07977 62.7945 3.43869 55.5734L3.31261 54.1545H8.43393H13.5553L13.6918 56.9398ZM33.8728 55.6785C33.9367 56.5168 34.0475 58.6687 34.1187 60.4608C34.1899 62.2528 34.3675 64.9015 34.5133 66.3466C34.6589 67.7918 34.7482 69.0319 34.7114 69.1021C34.6747 69.1725 33.9094 69.3486 33.0109 69.4937C30.7143 69.8643 25.5243 71.2176 22.6073 72.2062L20.1426 73.0418L19.6929 71.5336C18.1508 66.3616 16.9824 59.4034 16.9824 55.3935V54.1545H25.3694H33.7562L33.8728 55.6785ZM67.6393 54.2417C67.9133 54.5144 67.1138 68.1383 66.803 68.4927C66.7312 68.5747 65.3969 68.4855 63.8378 68.2944C59.7961 67.799 45.455 67.7948 41.2559 68.2877C39.6403 68.4773 38.2716 68.5856 38.2142 68.5284C37.9923 68.3062 37.5817 63.0882 37.443 58.7266L37.2978 54.1545H52.4248C60.7448 54.1545 67.5912 54.1938 67.6393 54.2417ZM88.0038 55.3165C88.0038 57.2759 87.3869 62.5252 86.8313 65.2956C86.4012 67.4391 85.7303 70.0617 84.94 72.6882C84.8467 72.9983 84.5527 72.9441 82.3889 72.2167C79.0938 71.1094 76.4786 70.4066 73.0851 69.7169C70.3606 69.1632 70.2503 69.1204 70.294 68.6369C70.6493 64.7226 70.9839 59.589 70.9839 58.0505C70.9839 56.9806 71.0439 55.6661 71.1175 55.1299L71.2511 54.1545H79.6275H88.0038V55.3165ZM101.547 55.5734C100.907 62.7886 99.3908 68.4162 96.5211 74.2295C94.5672 78.1882 94.8914 77.9571 92.9158 76.7985C92.0035 76.2633 90.5173 75.4836 89.6133 75.0659C88.4864 74.545 88.0046 74.2154 88.0805 74.0176C88.3959 73.1951 89.7325 68.0855 90.0872 66.346C90.7127 63.2776 91.1581 59.7873 91.301 56.8347L91.4307 54.1545H96.552H101.674L101.547 55.5734ZM62.684 71.5876C63.7241 71.7036 64.9865 71.8562 65.4896 71.9264L66.404 72.0545L66.267 73.037C65.9436 75.3569 65.0229 79.911 64.3261 82.6379C61.7729 92.6296 58.126 99.3767 54.3201 101.149C52.9423 101.791 52.0438 101.791 50.6661 101.149C46.8599 99.3764 43.2094 92.6226 40.6609 82.6379C39.9143 79.713 39.0017 75.2223 38.7313 73.1415L38.5899 72.0534L39.5268 71.9128C40.0423 71.8354 41.9176 71.6446 43.6944 71.4884C47.3402 71.168 59.492 71.2317 62.684 71.5876ZM35.263 72.8106C35.263 72.8974 35.4528 74.1318 35.6847 75.5536C37.2787 85.3265 40.003 93.6295 43.2422 98.5873C44.3174 100.233 44.3204 100.241 43.7331 100.107C43.4084 100.032 41.9134 99.3558 40.411 98.6048C34.8762 95.8378 30.3306 91.6655 26.3202 85.6716C24.4833 82.9261 21.2205 76.521 21.5168 76.242C21.8332 75.9442 26.8991 74.367 29.6544 73.7088C34.0655 72.6548 35.263 72.4631 35.263 72.8106ZM72.531 73.0675C76.3903 73.8618 82.9693 75.7712 83.4693 76.242C83.7656 76.521 80.5028 82.9261 78.6659 85.6716C74.6551 91.6662 70.0702 95.8758 64.5751 98.6094C63.0727 99.3567 61.5777 100.03 61.2531 100.105C60.666 100.241 60.6689 100.232 61.7439 98.5873C64.9832 93.6295 67.7074 85.3265 69.3014 75.5536C69.5334 74.1318 69.7231 72.8974 69.7231 72.8106C69.7231 72.5627 70.3638 72.6214 72.531 73.0675ZM20.1903 81.797C22.6487 86.8026 26.553 92.2154 30.0249 95.4312C30.8538 96.1989 31.4428 96.827 31.3339 96.827C30.9446 96.827 25.8754 93.8141 23.9109 92.4149C21.5277 90.7175 18.4782 88.0352 16.482 85.8804C14.8689 84.1388 12.359 80.9934 12.3609 80.7157C12.3626 80.4881 13.163 80.0157 15.9317 78.6088L18.138 77.4875L18.4414 78.1707C18.6085 78.5466 19.3954 80.1784 20.1903 81.797ZM90.4727 79.3386C91.6572 79.9924 92.6265 80.6102 92.6265 80.7115C92.6265 81.0544 89.8497 84.4562 87.9307 86.4641C85.7836 88.711 83.2443 90.901 80.7546 92.6531C79.0055 93.8837 73.9974 96.827 73.6522 96.827C73.5434 96.827 74.1323 96.1989 74.9613 95.4312C78.9771 91.7116 83.1018 85.7273 85.8981 79.5634L86.8162 77.5399L87.5676 77.8449C87.9809 78.0126 89.2883 78.6849 90.4727 79.3386Z" fill="black"/>
</svg>
