<svg width="19" height="19" viewBox="0 0 19 19" fill="none" xmlns="http://www.w3.org/2000/svg">
<path fill-rule="evenodd" clip-rule="evenodd" d="M4.43059 0.0603072C2.88522 0.378604 1.74959 1.5598 1.50458 3.10375C1.47078 3.31665 1.45582 3.81372 1.46515 4.41545C1.48157 5.47775 1.48747 5.50136 1.79506 5.731C1.97218 5.86325 2.4061 5.86325 2.58322 5.731C2.89401 5.49898 2.8957 5.49166 2.92356 4.27822C2.95091 3.08536 2.96976 2.98408 3.25525 2.49694C3.40172 2.24698 3.80865 1.86172 4.06354 1.73166C4.52107 1.49827 4.58548 1.48784 5.74252 1.46021C6.95569 1.43121 6.96338 1.42938 7.19525 1.11881C7.3275 0.941684 7.3275 0.507743 7.19525 0.330617C6.96205 0.0182213 6.95446 0.0164831 5.78822 0.00737975C5.05124 0.00161583 4.63726 0.017764 4.43059 0.0603072ZM12.1361 0.0550007C11.7062 0.24887 11.5728 0.827732 11.8751 1.18706C12.0825 1.43354 12.1983 1.45664 13.2252 1.45664C14.2329 1.45664 14.4847 1.49479 14.9143 1.71249C15.2018 1.85819 15.6064 2.23298 15.7611 2.49694C16.0465 2.98408 16.0654 3.08536 16.0928 4.27822C16.1163 5.30204 16.1251 5.39372 16.2125 5.51051C16.3918 5.75049 16.538 5.82533 16.8272 5.82533C17.1165 5.82533 17.2628 5.75035 17.4419 5.51028C17.5313 5.39042 17.5362 5.32396 17.5362 4.23224C17.5362 3.0156 17.5214 2.89936 17.2858 2.27059C17.1522 1.91382 16.7983 1.38395 16.4831 1.06881C16.0218 0.607468 15.4831 0.301843 14.7694 0.0964002C14.4154 -0.00547475 12.3425 -0.0380912 12.1361 0.0550007ZM0.425714 8.84008C0.123165 8.97229 -0.0513939 9.32315 0.0134709 9.6689C0.0535882 9.88285 0.282033 10.1355 0.489435 10.1954C0.605076 10.2288 3.42079 10.2396 9.60774 10.2303L18.5587 10.2169L18.6851 10.1226C18.9251 9.94333 19 9.79712 19 9.50783C19 9.21853 18.9251 9.07233 18.6851 8.8931L18.5587 8.79878L9.56199 8.78894C2.15209 8.78084 0.540623 8.78985 0.425714 8.84008ZM1.88952 13.2293C1.7021 13.3143 1.51314 13.5471 1.47755 13.7369C1.41982 14.0446 1.48414 15.9642 1.56117 16.2331C1.76505 16.9447 2.07167 17.4853 2.53322 17.9468C2.84835 18.262 3.3782 18.616 3.73496 18.7496C4.36371 18.9852 4.47995 19 5.69655 19C6.78823 19 6.85469 18.9951 6.97454 18.9057C7.2146 18.7266 7.28958 18.5803 7.28958 18.2909C7.28958 18.0017 7.21474 17.8556 6.97477 17.6762C6.85798 17.5889 6.76631 17.58 5.74252 17.5565C4.5497 17.5291 4.44843 17.5103 3.9613 17.2248C3.71136 17.0783 3.3261 16.6714 3.19605 16.4165C2.96267 15.9589 2.95224 15.8945 2.92461 14.7374C2.8957 13.528 2.89291 13.5159 2.58999 13.2897C2.43858 13.1767 2.07469 13.1453 1.88952 13.2293ZM16.5298 13.2295C16.3604 13.3079 16.2085 13.4693 16.1441 13.6393C16.1153 13.7151 16.0953 14.149 16.0953 14.6933C16.0953 15.6963 16.0569 15.9488 15.8394 16.3781C15.6937 16.6656 15.3189 17.0701 15.055 17.2248C14.5679 17.5103 14.4666 17.5291 13.2738 17.5565C12.25 17.58 12.1583 17.5889 12.0415 17.6762C11.8016 17.8556 11.7267 18.0017 11.7267 18.2909C11.7267 18.5803 11.8017 18.7266 12.0418 18.9057C12.1616 18.9951 12.2281 19 13.3198 19C14.5364 19 14.6526 18.9852 15.2813 18.7496C15.6381 18.616 16.168 18.262 16.4831 17.9468C16.7983 17.6317 17.1522 17.1018 17.2858 16.7451C17.5214 16.1163 17.5362 16.0001 17.5362 14.7834C17.5362 13.6917 17.5313 13.6252 17.4419 13.5054C17.39 13.4358 17.2938 13.3388 17.228 13.2897C17.0764 13.1765 16.7121 13.1451 16.5298 13.2295Z" fill="black"/>
</svg>
