<svg xmlns="http://www.w3.org/2000/svg" width="30" height="30" fill="none" viewBox="0 0 30 30">
  <path fill="#D53F48" fill-rule="evenodd" d="M6.996.095c-2.44.503-4.233 2.368-4.62 4.806-.054.336-.077 1.12-.063 2.07.026 1.678.036 1.715.521 2.078.28.209.965.209 1.245 0 .49-.366.493-.378.537-2.294.043-1.883.073-2.043.524-2.812.231-.395.874-1.003 1.276-1.209.723-.368.824-.385 2.651-.428 1.916-.046 1.928-.05 2.294-.54.209-.28.209-.964 0-1.244-.368-.493-.38-.496-2.222-.51-1.163-.01-1.817.016-2.143.083ZM19.162.087c-.678.306-.89 1.22-.412 1.787.328.39.51.426 2.132.426 1.591 0 1.988.06 2.667.404.454.23 1.093.822 1.337 1.239.45.769.48.929.524 2.812.037 1.617.05 1.761.189 1.946.283.379.514.497.97.497.457 0 .688-.119.97-.498.142-.189.15-.294.15-2.018 0-1.92-.024-2.104-.396-3.097-.21-.563-.77-1.4-1.267-1.897C25.298.959 24.447.477 23.32.152c-.559-.16-3.832-.212-4.158-.065ZM.672 13.958c-.478.209-.753.763-.65 1.309.063.338.423.736.75.831.183.053 4.63.07 14.398.055l14.133-.021.2-.149c.379-.283.497-.514.497-.97 0-.457-.118-.688-.497-.971l-.2-.15-14.205-.015c-11.7-.013-14.244.002-14.426.081Zm2.311 6.93c-.295.135-.594.502-.65.802-.091.486.01 3.517.132 3.941.322 1.124.806 1.977 1.535 2.706.497.498 1.334 1.057 1.897 1.268.993.372 1.177.395 3.098.395 1.723 0 1.828-.008 2.017-.149.38-.283.498-.514.498-.97 0-.457-.118-.688-.497-.971-.185-.138-.33-.152-1.946-.19-1.883-.042-2.043-.072-2.812-.523-.395-.231-1.003-.874-1.209-1.276-.368-.723-.385-.824-.428-2.651-.046-1.91-.05-1.93-.529-2.286-.239-.179-.813-.228-1.106-.096Zm23.117 0a1.239 1.239 0 0 0-.61.648c-.045.12-.076.804-.076 1.664 0 1.584-.06 1.982-.404 2.66-.23.454-.822 1.093-1.239 1.337-.77.45-.929.48-2.812.524-1.617.037-1.762.05-1.946.189-.379.283-.497.514-.497.97 0 .457.118.688.497.971.19.141.294.149 2.018.149 1.921 0 2.105-.023 3.097-.395.564-.211 1.4-.77 1.898-1.268.498-.497 1.056-1.334 1.267-1.897.372-.993.396-1.177.396-3.098 0-1.723-.008-1.828-.15-2.018a2.01 2.01 0 0 0-.337-.34c-.24-.179-.814-.229-1.102-.095Z" clip-rule="evenodd"/>
</svg>
