<svg xmlns="http://www.w3.org/2000/svg" width="31" height="31" fill="none" viewBox="0 0 31 31">
  <path fill="#fff" fill-rule="evenodd" d="M15.5 1.294c-.68 0-1.346.179-1.935.518L9.437 4.171a1.29 1.29 0 0 0-.715.409L4.526 6.977l-.005.003c-.478.276-.89.65-1.21 1.096a1.293 1.293 0 0 0-.322.534 3.875 3.875 0 0 0-.406 1.722v10.336a3.876 3.876 0 0 0 1.938 3.352l.005.003 9.036 5.164.003.001c.41.236.857.395 1.321.469a1.286 1.286 0 0 0 1.228 0 3.875 3.875 0 0 0 1.321-.469l.002-.001 9.037-5.164.005-.003a3.875 3.875 0 0 0 1.938-3.352V10.332a3.875 3.875 0 0 0-.406-1.722 1.294 1.294 0 0 0-.322-.534 3.875 3.875 0 0 0-1.21-1.096l-9.042-5.166-.002-.002a3.875 3.875 0 0 0-1.935-.518Zm1.292 25.286 8.395-4.797.002-.001a1.292 1.292 0 0 0 .644-1.116v-9.638l-9.041 5.23V26.58Zm-2.584-10.322-9.041-5.23v9.638a1.291 1.291 0 0 0 .643 1.116h.002l8.396 4.798V16.258Zm1.943-12.204 8.34 4.766-3.172 1.835-8.97-5.173 2.5-1.428.005-.003a1.291 1.291 0 0 1 1.292 0l.005.003ZM15.5 14.02l3.238-1.873-8.986-5.182L6.509 8.82l8.99 5.2Z" clip-rule="evenodd"/>
</svg>
