<svg xmlns="http://www.w3.org/2000/svg" width="32" height="32" fill="none" viewBox="0 0 32 32">
  <path fill="#fff" fill-rule="evenodd" d="M16.673 5.333c-5.519 0-9.993 4.474-9.993 9.994 0 1.597.374 3.104 1.037 4.44.157.315.183.68.071 1.015l-1.692 5.075 5.127-1.653c.331-.107.691-.08 1.003.075a9.946 9.946 0 0 0 4.447 1.041c5.52 0 9.994-4.474 9.994-9.993 0-5.52-4.475-9.994-9.994-9.994Zm-12.66 9.994c0-6.992 5.668-12.66 12.66-12.66s12.66 5.668 12.66 12.66-5.668 12.66-12.66 12.66a12.62 12.62 0 0 1-5.132-1.084l-7.133 2.3a1.333 1.333 0 0 1-1.675-1.69l2.357-7.07a12.621 12.621 0 0 1-1.077-5.116Z" clip-rule="evenodd"/>
</svg>
