<svg xmlns="http://www.w3.org/2000/svg" width="29" height="29" fill="none" viewBox="0 0 29 29">
  <path fill="#fff" fill-rule="evenodd" d="M3.625 2.417c-.667 0-1.208.54-1.208 1.208v8.458c0 .668.54 1.208 1.208 1.208h8.458c.668 0 1.209-.54 1.209-1.208V3.625c0-.668-.541-1.208-1.209-1.208H3.625Zm1.208 8.458V4.833h6.042v6.042H4.833Zm12.084-8.458c-.668 0-1.209.54-1.209 1.208v8.458c0 .668.541 1.208 1.209 1.208h8.458c.667 0 1.208-.54 1.208-1.208V3.625c0-.668-.54-1.208-1.208-1.208h-8.458Zm1.208 8.458V4.833h6.042v6.042h-6.042Zm-2.417 6.041c0-.667.541-1.208 1.209-1.208h8.458c.667 0 1.208.541 1.208 1.208v8.459c0 .667-.54 1.208-1.208 1.208h-8.458a1.208 1.208 0 0 1-1.209-1.208v-8.459Zm2.417 1.209v6.041h6.042v-6.041h-6.042Zm-14.5-2.417c-.667 0-1.208.541-1.208 1.208v8.459c0 .667.54 1.208 1.208 1.208h8.458c.668 0 1.209-.54 1.209-1.208v-8.459c0-.667-.541-1.208-1.209-1.208H3.625Zm1.208 8.458v-6.041h6.042v6.041H4.833Z" clip-rule="evenodd"/>
</svg>
