<svg xmlns="http://www.w3.org/2000/svg" width="27" height="27" fill="none" viewBox="0 0 27 27">
  <path fill="#fff" d="M11.508 4.724a9 9 0 0 1 8.384 2.447l3.2 2.954h-3.967a1.125 1.125 0 1 0 0 2.25h6.75c.621 0 1.125-.504 1.125-1.125V4.5a1.125 1.125 0 0 0-2.25 0v4.094l-3.316-3.06A11.25 11.25 0 0 0 2.888 9.748a1.125 1.125 0 1 0 2.121.751 9 9 0 0 1 6.499-5.776ZM1.125 14.625C.504 14.625 0 15.128 0 15.75v6.75a1.125 1.125 0 0 0 2.25 0v-4.094l3.316 3.06a11.25 11.25 0 0 0 18.546-4.216 1.125 1.125 0 1 0-2.121-.75 8.999 8.999 0 0 1-14.883 3.328l-3.2-2.953h3.967a1.125 1.125 0 0 0 0-2.25h-6.75Z"/>
</svg>
