<svg xmlns="http://www.w3.org/2000/svg" width="31" height="31" fill="none" viewBox="0 0 31 31">
  <path fill="#fff" fill-rule="evenodd" d="m2.067.634.317-.317L2.7 0h15.265l.317.317.317.317v13.833h11.766l.317.317.317.317v15.265l-.317.317-.317.317H.634l-.317-.317L0 30.366V15.1l.317-.317c.26-.26.445-.317 1.033-.317h.717V.634Zm5.458 6.287c-.34-.348-.292-1.075-.292-2.588V2.067h-3.1v12.4h12.4v-12.4h-3.1v2.266c0 1.513.048 2.24-.291 2.588-.354.361-1.126.312-2.809.312-1.682 0-2.455.049-2.808-.312Zm3.842-1.754v-3.1H9.3v3.1h2.067Zm-5.909 16.22c-.34-.347-.291-1.074-.291-2.587v-2.267h-3.1v12.4h12.4v-12.4h-3.1V18.8c0 1.513.048 2.24-.292 2.587-.353.362-1.126.313-2.808.313-1.683 0-2.455.049-2.809-.313ZM9.3 19.633v-3.1H7.233v3.1H9.3Zm10.625 1.754c-.34-.347-.292-1.074-.292-2.587v-2.267h-3.1v12.4h12.4v-12.4h-3.1V18.8c0 1.513.048 2.24-.291 2.587-.354.362-1.126.313-2.809.313-1.682 0-2.455.049-2.808-.313Zm3.842-1.754v-3.1H21.7v3.1h2.067Z" clip-rule="evenodd"/>
</svg>
