<svg xmlns="http://www.w3.org/2000/svg" width="27" height="23" fill="none" viewBox="0 0 27 23">
  <path stroke="#D43347" stroke-width="2" d="M19.606 4.852a5.553 5.553 0 0 0-1.155.289l-.004-.01-.003-.01a5.328 5.328 0 0 0-2.821-2.971 5.379 5.379 0 0 0-4.105-.1l-.008.004a5.4 5.4 0 0 0-1.011.528A5.288 5.288 0 0 0 8.44 5.12a5.249 5.249 0 0 0-2.447-.366A5.307 5.307 0 0 0 3.288 5.79 5.441 5.441 0 0 0 1.16 9.253a5.365 5.365 0 0 0 .88 3.956 5.144 5.144 0 0 0 2.863 2.047l-.005 4.89v.995l.995.005 14.947.071 1.003.005.002-1.003c0-.644.002-1.287.004-1.93.002-.976.005-1.953.005-2.933a5.423 5.423 0 0 0 3.895-4.645 5.347 5.347 0 0 0-.844-3.49 5.313 5.313 0 0 0-2.858-2.157 5.511 5.511 0 0 0-2.442-.212Z"/>
</svg>
