<svg xmlns="http://www.w3.org/2000/svg" width="25" height="25" fill="none" viewBox="0 0 25 25">
  <path fill="#fff" fill-rule="evenodd" d="M12.5 8.333a4.167 4.167 0 1 0 0 8.334 4.167 4.167 0 0 0 0-8.334ZM10.417 12.5a2.083 2.083 0 1 1 4.166 0 2.083 2.083 0 0 1-4.166 0Z" clip-rule="evenodd"/>
  <path fill="#fff" fill-rule="evenodd" d="m21.161 16.046-.953-.421.958.41a.677.677 0 0 1 .618-.41h.091a3.125 3.125 0 1 0 0-6.25h-.174a.677.677 0 0 1-.556-.297 1.047 1.047 0 0 0-.067-.207.678.678 0 0 1 .132-.744l.057-.057a3.127 3.127 0 1 0-4.42-4.42l-.058.056a.677.677 0 0 1-.743.133l-.01-.005a.677.677 0 0 1-.411-.618v-.091a3.125 3.125 0 1 0-6.25 0v.174a.677.677 0 0 1-.297.556 1.11 1.11 0 0 0-.207.067.677.677 0 0 1-.744-.132l-.057-.057a3.125 3.125 0 1 0-4.42 4.42l.056.058a.677.677 0 0 1 .133.743c-.01.02-.017.04-.025.061a.677.677 0 0 1-.61.443h-.079a3.125 3.125 0 0 0 0 6.25h.174a.678.678 0 0 1 .619.41l.004.01a.677.677 0 0 1-.132.745l-.057.057a3.125 3.125 0 1 0 4.42 4.421l.058-.057a.677.677 0 0 1 .743-.133c.02.01.04.017.061.025a.677.677 0 0 1 .443.61v.079a3.125 3.125 0 1 0 6.25 0v-.174a.678.678 0 0 1 .41-.619l.01-.004a.678.678 0 0 1 .745.132l.057.057a3.127 3.127 0 1 0 4.421-4.42l-.057-.058a.677.677 0 0 1-.133-.743ZM11.763 2.388a1.042 1.042 0 0 1 1.779.737v.098a2.76 2.76 0 0 0 1.668 2.524 2.76 2.76 0 0 0 3.04-.554l.007-.009.063-.062a1.044 1.044 0 0 1 1.474 0h.001a1.042 1.042 0 0 1 0 1.474l-.063.063-.008.008a2.76 2.76 0 0 0-.632 2.843c.013.095.038.187.076.275a2.76 2.76 0 0 0 2.526 1.673h.181a1.042 1.042 0 0 1 0 2.084h-.098a2.76 2.76 0 0 0-2.524 1.668 2.76 2.76 0 0 0 .554 3.04l.009.007.062.063a1.044 1.044 0 0 1 0 1.474v.001a1.041 1.041 0 0 1-1.474 0l-.063-.063-.008-.008a2.76 2.76 0 0 0-3.04-.554 2.76 2.76 0 0 0-1.668 2.524v.181a1.042 1.042 0 1 1-2.083 0v-.118a2.76 2.76 0 0 0-1.777-2.515 2.761 2.761 0 0 0-3.014.565l-.008.009-.063.062a1.043 1.043 0 0 1-1.474 0h-.001a1.04 1.04 0 0 1 0-1.474l.063-.063.008-.008a2.76 2.76 0 0 0 .554-3.04 2.76 2.76 0 0 0-2.524-1.668h-.181a1.041 1.041 0 1 1 0-2.083h.118a2.76 2.76 0 0 0 2.515-1.777 2.76 2.76 0 0 0-.565-3.014l-.009-.008-.062-.063a1.045 1.045 0 0 1 0-1.474v-.001a1.042 1.042 0 0 1 1.474 0l.063.063.008.008a2.76 2.76 0 0 0 2.843.632c.095-.012.187-.038.275-.076a2.76 2.76 0 0 0 1.673-2.526v-.181c0-.276.11-.541.305-.737Z" clip-rule="evenodd"/>
</svg>
