<svg xmlns="http://www.w3.org/2000/svg" width="160" height="43" fill="none" viewBox="0 0 160 43">
  <path fill="#DB475A" d="M40.48 31.38c0-1.16.24-2.173.72-3.04a4.98 4.98 0 0 1 2-2c.867-.467 1.853-.7 2.96-.7 1.427 0 2.627.393 3.6 1.18.973.773 1.6 1.86 1.88 3.26h-4.16c-.24-.733-.707-1.1-1.4-1.1-.493 0-.887.207-1.18.62-.28.4-.42.993-.42 1.78s.14 1.387.42 1.8c.293.413.687.62 1.18.62.707 0 1.173-.367 1.4-1.1h4.16c-.28 1.387-.907 2.473-1.88 3.26-.973.787-2.173 1.18-3.6 1.18-1.107 0-2.093-.233-2.96-.7a4.98 4.98 0 0 1-2-2c-.48-.867-.72-1.887-.72-3.06Zm16.908 5.76c-1.12 0-2.126-.233-3.02-.7a5.176 5.176 0 0 1-2.08-2c-.506-.867-.76-1.887-.76-3.06 0-1.16.254-2.173.76-3.04a5.312 5.312 0 0 1 2.1-2c.894-.467 1.9-.7 3.02-.7s2.12.233 3 .7a5.143 5.143 0 0 1 2.1 2c.52.867.78 1.88.78 3.04 0 1.16-.26 2.18-.78 3.06a5.143 5.143 0 0 1-2.1 2c-.893.467-1.9.7-3.02.7Zm0-3.4c.547 0 1-.2 1.36-.6.374-.413.56-1 .56-1.76s-.186-1.34-.56-1.74c-.36-.4-.806-.6-1.34-.6-.533 0-.98.2-1.34.6-.36.4-.54.98-.54 1.74 0 .773.174 1.36.52 1.76.347.4.794.6 1.34.6Z"/>
  <path fill="#3A3244" d="M65.871 31.38c0-1.16.24-2.173.72-3.04a4.98 4.98 0 0 1 2-2c.867-.467 1.854-.7 2.96-.7 1.427 0 2.627.393 3.6 1.18.974.773 1.6 1.86 1.88 3.26h-4.16c-.24-.733-.706-1.1-1.4-1.1-.493 0-.886.207-1.18.62-.28.4-.42.993-.42 1.78s.14 1.387.42 1.8c.294.413.687.62 1.18.62.707 0 1.174-.367 1.4-1.1h4.16c-.28 1.387-.906 2.473-1.88 3.26-.973.787-2.173 1.18-3.6 1.18-1.106 0-2.093-.233-2.96-.7a4.98 4.98 0 0 1-2-2c-.48-.867-.72-1.887-.72-3.06Zm23.169-5.6V37H85.1v-1.6c-.334.507-.793.92-1.38 1.24-.587.307-1.26.46-2.02.46-1.307 0-2.34-.427-3.1-1.28-.747-.867-1.12-2.04-1.12-3.52v-6.52h3.9v6.02c0 .64.166 1.147.5 1.52.347.36.8.54 1.36.54.573 0 1.026-.18 1.36-.54.333-.373.5-.88.5-1.52v-6.02h3.94Zm3.11-1.04c-.693 0-1.253-.187-1.68-.56a1.892 1.892 0 0 1-.62-1.44c0-.587.207-1.073.62-1.46.427-.387.987-.58 1.68-.58.68 0 1.227.193 1.64.58.427.387.64.873.64 1.46 0 .573-.213 1.053-.64 1.44-.413.373-.96.56-1.64.56Zm1.94 1.04V37h-3.92V25.78h3.92Zm5.913 11.36c-1.013 0-1.92-.167-2.72-.5-.787-.347-1.413-.813-1.88-1.4a3.725 3.725 0 0 1-.76-2.02h3.8c.053.36.22.64.5.84.28.2.627.3 1.04.3.32 0 .573-.067.76-.2a.612.612 0 0 0 .28-.52c0-.28-.153-.487-.46-.62-.307-.133-.813-.28-1.52-.44-.8-.16-1.467-.34-2-.54-.533-.2-1-.527-1.4-.98-.386-.453-.58-1.067-.58-1.84 0-.667.18-1.267.54-1.8.36-.547.887-.98 1.58-1.3.707-.32 1.553-.48 2.54-.48 1.467 0 2.62.36 3.46 1.08.84.72 1.327 1.667 1.46 2.84h-3.54c-.067-.36-.227-.633-.48-.82-.24-.2-.567-.3-.98-.3-.32 0-.567.06-.74.18a.59.59 0 0 0-.24.5c0 .267.154.473.46.62.307.133.8.273 1.48.42.813.173 1.487.367 2.02.58.547.213 1.02.56 1.42 1.04.413.467.62 1.107.62 1.92 0 .653-.193 1.24-.58 1.76-.373.52-.913.933-1.62 1.24-.693.293-1.513.44-2.46.44Zm7.467-12.4c-.693 0-1.253-.187-1.68-.56a1.893 1.893 0 0 1-.62-1.44c0-.587.207-1.073.62-1.46.427-.387.987-.58 1.68-.58.68 0 1.227.193 1.64.58.427.387.64.873.64 1.46 0 .573-.213 1.053-.64 1.44-.413.373-.96.56-1.64.56Zm1.94 1.04V37h-3.92V25.78h3.92Zm8.473-.1c1.293 0 2.32.433 3.08 1.3.76.853 1.14 2.013 1.14 3.48V37h-3.92v-6.02c0-.64-.167-1.14-.5-1.5-.334-.373-.78-.56-1.34-.56-.587 0-1.047.187-1.38.56-.334.36-.5.86-.5 1.5V37h-3.92V25.78h3.92v1.6a3.775 3.775 0 0 1 1.4-1.22c.586-.32 1.26-.48 2.02-.48Zm4.631 5.7c0-1.16.206-2.173.62-3.04.426-.867 1-1.533 1.72-2a4.449 4.449 0 0 1 2.44-.7c.773 0 1.44.153 2 .46.56.307.993.72 1.3 1.24v-1.56h3.92V37h-3.92v-1.56a3.3 3.3 0 0 1-1.32 1.24c-.56.307-1.22.46-1.98.46a4.449 4.449 0 0 1-2.44-.7c-.72-.467-1.294-1.133-1.72-2-.414-.88-.62-1.9-.62-3.06Zm8.08 0c0-.72-.2-1.287-.6-1.7a1.893 1.893 0 0 0-1.44-.62c-.587 0-1.074.207-1.46.62-.387.4-.58.967-.58 1.7 0 .72.193 1.293.58 1.72.386.413.873.62 1.46.62.573 0 1.053-.207 1.44-.62.4-.413.6-.987.6-1.72Zm9.193-5.74c.76 0 1.42.153 1.98.46a3.29 3.29 0 0 1 1.32 1.24v-1.56h3.92v11.1c0 1.053-.2 2-.6 2.84-.4.853-1.026 1.533-1.88 2.04-.84.507-1.906.76-3.2.76-1.733 0-3.12-.407-4.16-1.22s-1.633-1.92-1.78-3.32h3.86c.08.36.28.64.6.84.32.2.734.3 1.24.3 1.334 0 2-.747 2-2.24v-1.44a3.29 3.29 0 0 1-1.32 1.24c-.56.307-1.22.46-1.98.46a4.454 4.454 0 0 1-2.44-.7c-.72-.467-1.293-1.133-1.72-2-.413-.88-.62-1.9-.62-3.06 0-1.16.207-2.173.62-3.04.427-.867 1-1.533 1.72-2a4.454 4.454 0 0 1 2.44-.7Zm3.3 5.74c0-.72-.2-1.287-.6-1.7a1.89 1.89 0 0 0-1.44-.62c-.586 0-1.073.207-1.46.62-.386.4-.58.967-.58 1.7 0 .72.194 1.293.58 1.72.387.413.874.62 1.46.62a1.89 1.89 0 0 0 1.44-.62c.4-.413.6-.987.6-1.72Zm15.774-.12c0 .307-.02.613-.06.92h-7.42c.04.613.207 1.073.5 1.38.307.293.693.44 1.16.44.653 0 1.12-.293 1.4-.88h4.18a4.9 4.9 0 0 1-1.02 2.08 5.163 5.163 0 0 1-1.88 1.42c-.76.347-1.6.52-2.52.52-1.107 0-2.093-.233-2.96-.7a5.111 5.111 0 0 1-2.02-2c-.48-.867-.72-1.887-.72-3.06s.24-2.187.72-3.04a4.981 4.981 0 0 1 2-2c.867-.467 1.86-.7 2.98-.7 1.107 0 2.087.227 2.94.68a4.883 4.883 0 0 1 2 1.96c.48.84.72 1.833.72 2.98Zm-4-.98c0-.48-.16-.853-.48-1.12-.32-.28-.72-.42-1.2-.42s-.873.133-1.18.4c-.307.253-.507.633-.6 1.14h3.46Z"/>
  <mask id="a" fill="#fff">
    <path d="M6.435 27.251c0-.94-.008-1.88 0-2.82 0-.166-.06-.198-.229-.197-1.406.005-2.812 0-4.217.003a1.001 1.001 0 0 1-.804-.307.727.727 0 0 1 .072-1.04 21860.328 21860.328 0 0 0 7.859-7.252l3.204-2.956 5.369-4.955a3086.923 3086.923 0 0 1 3.946-3.635.77.77 0 0 1 .724-.003 60145.447 60145.447 0 0 0 7.7 7.1c1.822 1.68 3.643 3.361 5.463 5.042a4682.462 4682.462 0 0 1 7.203 6.64.71.71 0 0 1 .203.875.877.877 0 0 1-.877.489c-1.23.002-2.462.002-3.694 0-.213 0-.426.003-.638 0-.114-.003-.17.028-.16.137.007.057 0 .115 0 .172V39.75c0 .25 0 .25-.282.25H11.384c.007-.072.078-.075.112-.109.393-.273.82-.494 1.27-.658a.84.84 0 0 0 .581-.902 2.698 2.698 0 0 0-.227-1.028 1.212 1.212 0 0 1-.057-.167c-.03-.1.012-.167.117-.208.12-.044.242-.08.366-.11a2.68 2.68 0 0 0 .77-.314.5.5 0 0 0 .254-.633 1.92 1.92 0 0 0-.546-.785c-.227-.212-.219-.276.05-.44.219-.117.421-.261.601-.43a.582.582 0 0 0 .09-.741 2.3 2.3 0 0 0-.683-.74 2.339 2.339 0 0 0-.168-.117.183.183 0 0 1-.11-.22.185.185 0 0 1 .043-.077c.116-.164.221-.336.315-.515a1.3 1.3 0 0 0 .141-.5.676.676 0 0 0-.435-.676 2.6 2.6 0 0 0-.86-.243c-.213-.032-.24-.066-.252-.262-.01-.15.012-.299 0-.449a.938.938 0 0 0-1.014-.912 4.052 4.052 0 0 0-.676.015c-.214.027-.272-.006-.345-.192a3.12 3.12 0 0 0-.232-.474.982.982 0 0 0-1.01-.467 2.42 2.42 0 0 0-.983.333c-.367.209-.416.2-.561-.164a.757.757 0 0 0-.787-.47c-.18-.003-.361-.009-.54.004-.091.006-.15-.016-.173-.098Z"/>
  </mask>
  <path fill="#3A3244" d="M6.435 27.251h-1.8v.246l.066.237 1.734-.483Zm0-2.82 1.8.016v-.015h-1.8Zm-.229-.197.007 1.8h.006l-.013-1.8Zm-4.217.003-.005-1.8h-.068l-.067.006.14 1.794Zm-.804-.307-1.341 1.2.02.022.02.022 1.301-1.244Zm.072-1.04 1.164 1.373.03-.026.03-.028-1.224-1.32Zm2.49-2.298 1.218 1.326.003-.003-1.22-1.323Zm5.37-4.955-1.222-1.323 1.221 1.323Zm3.203-2.955 1.22 1.324-1.22-1.324Zm5.369-4.955-1.221-1.322 1.22 1.322Zm3.19-2.941L19.663 3.46l-.001.001 1.219 1.325Zm.756-.694-.853-1.585-.198.107-.166.152 1.217 1.326Zm.724-.003 1.22-1.323-.172-.16-.207-.109-.84 1.592Zm4.267 3.936-1.22 1.322v.001l1.22-1.323Zm3.434 3.164 1.22-1.323-1.22 1.323Zm5.462 5.042-1.22 1.322 1.22-1.322Zm3.22 2.964 1.22-1.323-.002-.002-1.218 1.325Zm3.983 3.676-1.222 1.322.057.053.062.048 1.103-1.423Zm.203.875-1.617-.791-.002.004 1.619.787Zm-.877.489.183-1.791-.093-.01h-.093l.003 1.8Zm-3.694 0 .003-1.8h-.003v1.8Zm-.638 0-.047 1.799h.015l.032-1.8Zm-.16.137 1.792-.183v-.002l-1.791.185ZM11.385 40l-1.792-.175L9.4 41.8h1.984V40Zm.112-.109-1.027-1.478-.142.098-.121.124 1.29 1.256Zm1.27-.658-.543-1.716-.037.012-.037.013.616 1.691Zm.581-.902-1.8.038.002.087.01.087 1.788-.212Zm-.227-1.028-1.656.704.004.01.004.01 1.648-.724Zm-.057-.167 1.741-.457-.007-.028-.008-.027-1.726.512Zm.117-.208-.615-1.692-.023.008-.022.01.66 1.674Zm.366-.11.412 1.753.005-.001-.417-1.751Zm.77-.314-.762-1.632-.087.041-.083.05.932 1.54Zm.254-.633-1.687.628.004.009.003.009 1.68-.646Zm-.546-.785-1.228 1.316.026.024.027.024 1.175-1.364Zm.05-.44-.844-1.59-.049.026-.046.028.94 1.535Zm.601-.43 1.232 1.312.003-.003-1.235-1.31Zm.09-.741-1.557.902.022.037.023.035 1.513-.974Zm-.683-.74-1.094 1.43.035.026.037.025 1.022-1.481Zm-.168-.117.964-1.52-.143-.09-.158-.063-.663 1.673Zm-.067-.297 1.318 1.226.082-.088.07-.1-1.47-1.038Zm.315-.515 1.594.836.004-.007.003-.008-1.601-.821Zm.141-.5 1.795.14v-.012l.001-.01-1.796-.118Zm-.435-.676-.78 1.622.07.034.073.028.637-1.684Zm-.86-.243-.268 1.78.041.006.042.004.185-1.79Zm-.252-.262-1.797.115v.003l1.797-.118Zm0-.449-1.8.04.001.052.004.052 1.795-.144Zm-1.014-.912-.11 1.797.132.008.132-.012-.154-1.793Zm-.676.015-.19-1.79-.016.002-.016.002.222 1.786Zm-.345-.192 1.678-.652v-.002l-1.678.654Zm-.232-.474-1.548.919.005.009 1.543-.928Zm-1.01-.467.199 1.79.052-.006.053-.01-.303-1.774Zm-.983.333.888 1.566.02-.012.022-.012-.93-1.542Zm-.561-.164-1.671.67 1.67-.67Zm-.787-.47-.02 1.8h.11l.112-.012-.202-1.789Zm-.54.004.123 1.796h.002l-.125-1.796Zm1.627-.098c0-.961-.008-1.873 0-2.804l-3.6-.03c-.008.948 0 1.916 0 2.834h3.6Zm0-2.82c0-.177-.005-.989-.726-1.566-.593-.475-1.278-.431-1.316-.431l.026 3.6a1.395 1.395 0 0 1-.236-.023 1.648 1.648 0 0 1-.724-.336c-.65-.52-.624-1.233-.624-1.243h3.6ZM6.2 22.434c-1.422.005-2.776 0-4.215.003l.01 3.6c1.372-.003 2.83.002 4.219-.003l-.014-3.6Zm-4.35.009a.799.799 0 0 1 .347.05L.909 25.856c.389.148.805.208 1.22.176l-.28-3.589Zm.347.05c.11.042.21.109.29.194l-2.602 2.487c.287.3.637.533 1.025.682l1.287-3.363Zm.33.237c.097.107.17.232.216.367l-3.405 1.168c.11.32.282.613.507.865l2.683-2.4Zm.216.367c.047.136.065.279.055.421l-3.591-.248c-.023.337.021.675.13.995l3.406-1.168Zm.055.421c-.01.143-.048.282-.112.41l-3.213-1.624c-.152.3-.243.63-.266.966l3.591.248Zm-.112.41a1.074 1.074 0 0 1-.264.335L.094 21.516a2.51 2.51 0 0 0-.622.788l3.213 1.624Zm-.204.281c.826-.765 1.654-1.53 2.484-2.291L2.53 19.266C1.696 20.032.864 20.8.034 21.57l2.447 2.64Zm2.487-2.294 5.37-4.956-2.443-2.645-5.368 4.955 2.44 2.646Zm5.369-4.955 3.203-2.954-2.44-2.647-3.205 2.955 2.442 2.646Zm3.204-2.955L18.91 9.05l-2.442-2.645L11.1 11.36l2.44 2.645ZM18.91 9.05l3.189-2.94-2.438-2.649c-1.065.98-2.13 1.962-3.193 2.944L18.91 9.05Zm3.188-2.939.754-.693-2.434-2.652-.756.694 2.436 2.651Zm.39-.434a1.03 1.03 0 0 1-.484.123l-.014-3.6a2.57 2.57 0 0 0-1.208.307l1.706 3.17Zm-.484.123c-.169 0-.336-.04-.485-.12L23.2 2.498a2.57 2.57 0 0 0-1.21-.297l.014 3.6Zm-.864-.387a5224.2 5224.2 0 0 1 4.265 3.934l2.442-2.645a11047.9 11047.9 0 0 0-4.268-3.936l-2.44 2.647Zm4.266 3.935 3.434 3.165 2.44-2.647L27.845 6.7l-2.44 2.647Zm3.433 3.164 5.462 5.041 2.442-2.645-5.463-5.042-2.441 2.646Zm5.463 5.042c1.073.99 2.147 1.979 3.223 2.967l2.435-2.651c-1.074-.987-2.146-1.974-3.217-2.962l-2.441 2.646Zm3.22 2.965c1.328 1.224 2.655 2.449 3.981 3.674l2.443-2.644a4995.538 4995.538 0 0 0-3.983-3.677l-2.44 2.647Zm4.1 3.775a1.09 1.09 0 0 1-.394-.615l3.507-.813a2.511 2.511 0 0 0-.907-1.417l-2.206 2.845Zm-.394-.615a1.09 1.09 0 0 1 .083-.724l3.234 1.582a2.52 2.52 0 0 0 .19-1.671l-3.507.813Zm.08-.72a.923.923 0 0 1 .381-.403l1.754 3.144a2.677 2.677 0 0 0 1.103-1.167l-3.237-1.574Zm.381-.403a.925.925 0 0 1 .545-.112l-.365 3.581a2.675 2.675 0 0 0 1.574-.325l-1.754-3.144Zm.359-.121a906.56 906.56 0 0 1-3.688 0l-.007 3.6c1.234.002 2.468.002 3.702 0l-.007-3.6Zm-3.691 0c-.258 0-.413.003-.606 0l-.064 3.6c.23.003.502 0 .67 0v-3.6Zm-.592 0c-.113-.003-.723-.028-1.28.408-.727.567-.751 1.368-.715 1.713l3.58-.37a1.69 1.69 0 0 1-.65 1.494 1.681 1.681 0 0 1-.703.325c-.157.031-.278.03-.325.029l.093-3.599Zm-1.996 2.12a1.31 1.31 0 0 1-.006-.133v-.01.018l-.001.014a2.26 2.26 0 0 0-.002.1h3.6v.014-.019l.002-.036c0-.052.003-.17-.011-.314l-3.582.365Zm-.01-.011V39.75h3.6V24.544h-3.6Zm0 15.206c0 .112-.002.024.01-.08.015-.115.088-.63.564-1.05.43-.38.894-.412.932-.415.069-.007.122-.005.012-.005v3.6c.032 0 .19.002.34-.012.117-.012.634-.06 1.099-.47a1.905 1.905 0 0 0 .625-1.199c.022-.174.019-.356.019-.369h-3.6Zm1.518-1.55H11.384v3.6h25.893v-3.6Zm-24.102 1.975a1.718 1.718 0 0 1-.814 1.297c-.047.028-.083.047-.088.05l.04-.021c.044-.024.261-.137.472-.354l-2.579-2.511c.194-.2.39-.3.412-.312l.004-.002a1.903 1.903 0 0 0-.66.553 1.882 1.882 0 0 0-.37.95l3.583.35Zm-.653 1.195c.266-.185.555-.334.86-.445l-1.233-3.383a7.42 7.42 0 0 0-1.68.87l2.053 2.958Zm.785-.42a2.64 2.64 0 0 0 1.424-1.087l-3.025-1.951a.96.96 0 0 1 .517-.395l1.084 3.433Zm1.424-1.087a2.643 2.643 0 0 0 .404-1.744l-3.575.424a.958.958 0 0 1 .146-.631l3.025 1.95Zm.416-1.57a4.497 4.497 0 0 0-.38-1.715l-3.295 1.449a.898.898 0 0 1 .076.342l3.599-.076Zm-.37-1.695a.7.7 0 0 1 .027.081l-3.482.914c.037.141.084.28.142.414l3.312-1.41Zm.012.026c.082.279.135.778-.16 1.288a1.6 1.6 0 0 1-.788.69l-1.321-3.349a2.003 2.003 0 0 0-1.007.854 1.953 1.953 0 0 0-.176 1.541l3.452-1.024Zm-.994 1.995c.053-.019.107-.035.163-.048l-.823-3.505a5.022 5.022 0 0 0-.57.17l1.23 3.384Zm.168-.05a4.488 4.488 0 0 0 1.284-.525l-1.863-3.08a.889.889 0 0 1-.255.104l.834 3.502Zm1.114-.434a2.3 2.3 0 0 0 1.16-1.225l-3.34-1.345c.124-.305.358-.553.657-.693l1.523 3.263Zm1.16-1.225a2.3 2.3 0 0 0 .014-1.685l-3.36 1.292a1.3 1.3 0 0 1 .007-.952l3.34 1.345Zm.02-1.667a3.72 3.72 0 0 0-1.058-1.52l-2.35 2.727a.12.12 0 0 1 .034.049l3.374-1.256Zm-1.004-1.472c-.044-.042.03.02.118.145.088.125.35.54.28 1.139a1.65 1.65 0 0 1-.507 1.02c-.104.096-.183.139-.13.106l-1.88-3.07c-.08.049-.261.16-.436.322-.17.158-.548.557-.623 1.209a1.945 1.945 0 0 0 .351 1.344c.141.2.3.35.37.416l2.457-2.631Zm-.334 2.464c.36-.191.692-.429.989-.707l-2.464-2.625a.988.988 0 0 1-.214.153l1.69 3.179Zm.991-.71c.406-.382.664-.894.731-1.446l-3.573-.435c.034-.282.166-.543.373-.739l2.47 2.62Zm.731-1.446a2.385 2.385 0 0 0-.362-1.58l-3.026 1.95a1.216 1.216 0 0 1-.185-.805l3.573.435Zm-.318-1.507a4.1 4.1 0 0 0-1.219-1.319l-2.044 2.963c.06.042.111.097.148.161l3.115-1.805Zm-1.148-1.267a4.125 4.125 0 0 0-.297-.207l-1.928 3.04.039.026 2.186-2.86Zm-.598-.36c.245.097.462.253.633.453l-2.737 2.338c.21.245.476.436.777.556l1.327-3.347Zm.633.453c.171.2.29.438.348.694l-3.512.79c.07.316.217.608.427.854l2.737-2.338Zm.348.694c.058.256.052.523-.017.776l-3.475-.939a1.986 1.986 0 0 0-.02.954l3.512-.79Zm-.017.776a1.615 1.615 0 0 1-.377.68l-2.635-2.453c-.22.236-.379.523-.463.834l3.475.94Zm-.224.491a6.25 6.25 0 0 0 .439-.717l-3.188-1.672a2.792 2.792 0 0 1-.192.313l2.941 2.076Zm.446-.732c.19-.367.303-.77.335-1.182l-3.59-.278a.483.483 0 0 1 .052-.182l3.203 1.642Zm.336-1.204a2.476 2.476 0 0 0-.388-1.5l-3.028 1.947a1.123 1.123 0 0 1-.176-.68l3.592.233Zm-.388-1.5a2.474 2.474 0 0 0-1.205-.976l-1.275 3.367a1.126 1.126 0 0 1-.548-.444l3.028-1.947Zm-1.062-.915c-.458-.22-.95-.36-1.456-.412l-.37 3.581c.092.01.181.035.264.075l1.562-3.244Zm-1.373-.401c-.036-.006.047.003.166.042a1.65 1.65 0 0 1 1.077 1.168c.033.133.036.229.033.19l-3.592.236c.004.06.014.233.062.429.055.223.178.566.477.882.294.31.62.45.82.516.184.06.35.086.42.096l.537-3.56Zm1.276 1.404c.002.032 0 .052.004-.045.002-.065.01-.24-.006-.434l-3.589.288c-.003-.044 0-.069-.003.016-.001.03-.004.09-.004.153-.001.066 0 .152.005.25l3.593-.229Zm.003-.374a2.738 2.738 0 0 0-.248-1.081l-3.273 1.5a.863.863 0 0 1-.078-.34l3.6-.079Zm-.248-1.081a2.737 2.737 0 0 0-.657-.894l-2.408 2.676a.863.863 0 0 1-.208-.282l3.273-1.5Zm-.657-.894a2.733 2.733 0 0 0-.96-.56l-1.144 3.413a.867.867 0 0 1-.304-.177l2.408-2.676Zm-.96-.56a2.73 2.73 0 0 0-1.103-.131l.31 3.586a.868.868 0 0 1-.351-.042l1.145-3.413Zm-.839-.135a5.846 5.846 0 0 0-.976.022l.382 3.58c.125-.013.25-.016.375-.008l.219-3.594Zm-1.007.026.011-.001a1.31 1.31 0 0 1 .187-.002 1.614 1.614 0 0 1 1.33.883.842.842 0 0 1 .027.062l-3.355 1.304c.04.106.26.728.918 1.095.617.345 1.235.243 1.326.232l-.444-3.573Zm1.554.94a4.912 4.912 0 0 0-.367-.747L8.946 29.04c.038.063.071.13.098.2l3.354-1.308Zm-.362-.739a2.782 2.782 0 0 0-1.224-1.105l-1.511 3.267a.817.817 0 0 1-.36-.324l3.095-1.838Zm-1.224-1.105a2.78 2.78 0 0 0-1.635-.217l.606 3.549a.82.82 0 0 1-.482-.065l1.511-3.267Zm-1.53-.232a4.218 4.218 0 0 0-1.716.581l1.86 3.083a.619.619 0 0 1 .252-.086l-.396-3.578Zm-1.673.556c-.102.058-.069.034.01.003.061-.024.47-.186 1.002-.036.578.163.857.563.933.683.068.107.09.181.052.083l-3.342 1.338c.033.084.117.296.246.501.138.218.48.675 1.134.86a2.014 2.014 0 0 0 1.285-.076 3.49 3.49 0 0 0 .455-.224l-1.775-3.132Zm1.997.733a2.557 2.557 0 0 0-1.061-1.244l-1.849 3.09a1.043 1.043 0 0 1-.432-.508l3.342-1.338Zm-1.061-1.244a2.555 2.555 0 0 0-1.6-.346l.405 3.577a1.045 1.045 0 0 1-.654-.142l1.849-3.089Zm-1.376-.358c-.128-.001-.413-.01-.687.01l.25 3.59c.086-.005.162-.002.395 0l.042-3.6Zm-.685.01c.08-.006.435-.028.837.18.497.256.751.688.848 1.034l-3.468.966c.12.429.415.912.97 1.198.46.238.889.224 1.06.213l-.247-3.592Z" mask="url(#a)"/>
  <path fill="#DB475A" d="M22.348 28.344h-4.82a2.547 2.547 0 0 1-.559-.049 1.615 1.615 0 0 1-1.263-1.526c-.008-1.455-.002-2.91-.006-4.366 0-.105.06-.094.127-.094h5.597c.124 0 .125 0 .125-.12v-3.898c0-.149.005-.154.156-.154h.704c.154 0 .162.008.162.158v3.855c0 .16 0 .16.158.16h6.13c.14 0 .14 0 .14.14v4.233a1.63 1.63 0 0 1-1.403 1.636 2.11 2.11 0 0 1-.346.023c-1.634.002-3.268.003-4.902.002Z"/>
  <path fill="#DB475A" d="M20.822 22.045a4.084 4.084 0 0 1-.43-.017.584.584 0 0 1-.485-.325 5.143 5.143 0 0 1-.295-.792 47.183 47.183 0 0 1-.752-2.714 2.173 2.173 0 0 1-.028-.909c.049-.286.193-.37.452-.208.221.139.405.33.533.558.39.681.778 1.364 1.134 2.064.07.136.133.275.202.411.077.15.116.316.114.484 0 .451-.004.902-.003 1.353 0 .073-.025.1-.098.096-.107-.004-.213-.001-.344-.001Zm4.51 0c-.077 0-.155-.004-.231 0-.077.004-.099-.03-.091-.1a67.775 67.775 0 0 0 .176-1.918c.043-.573.081-1.146.12-1.72.027-.404.051-.808.078-1.211.004-.07.009-.141.019-.21.02-.145.079-.192.225-.196.262 0 .523.021.78.063.132.017.13.019.109.15-.24 1.428-.482 2.857-.724 4.286-.043.255-.087.509-.128.764-.01.067-.038.097-.11.092-.072-.006-.148 0-.223 0Zm.5 0h-.05c-.095 0-.098-.006-.065-.095.15-.402.3-.803.447-1.206.39-1.074.778-2.148 1.165-3.223.069-.19.144-.379.213-.57.022-.059.046-.069.104-.038.204.108.408.216.616.316.068.033.072.065.044.129-.23.544-.503 1.069-.768 1.597-.49.974-.982 1.947-1.476 2.92-.05.098-.1.201-.23.17Zm.666 0c-.072 0-.144.002-.214 0-.048-.002-.111.023-.138-.032-.027-.054.032-.089.06-.127.33-.454.664-.908.999-1.36.418-.563.838-1.124 1.26-1.684.063-.083.065-.083.119.002.126.198.257.395.369.602a.247.247 0 0 1-.066.336 9.04 9.04 0 0 0-.847.79 11.22 11.22 0 0 0-1.03 1.28c-.018.027-.038.053-.057.08a.237.237 0 0 1-.232.115c-.074-.008-.149-.002-.223-.002Zm-2.577-.988c0-.357-.011-.715.017-1.072a.501.501 0 0 1 .706-.456.486.486 0 0 1 .31.48 6.7 6.7 0 0 1-.023.757c-.024.389-.056.777-.082 1.166-.008.115-.005.116-.125.116-.228 0-.457-.003-.685 0-.086 0-.12-.02-.119-.112.005-.292.001-.586.001-.879Zm-5.411.988h-.998c-.134 0-.134 0-.119-.131a1.13 1.13 0 0 1 2.248.014c.009.108 0 .117-.108.117H18.51Z"/>
  <path fill="#DB475A" d="M18.433 19.833a1.567 1.567 0 0 1-.511 1.09c-.046.044-.075.027-.111-.005a1.422 1.422 0 0 1-.498-.898 1.375 1.375 0 0 1 .34-1.15c.049-.056.108-.1.16-.152.044-.044.078-.033.122.004a1.413 1.413 0 0 1 .498 1.111Zm-1.495 1.494a1.48 1.48 0 0 1-1.19-.536c-.046-.052-.03-.078.022-.109.303-.172.661-.22.998-.13.303.067.574.236.77.478.074.09.072.1-.03.151a1.293 1.293 0 0 1-.57.146Zm6.017-.199c0-.267.003-.534 0-.801 0-.085.032-.112.115-.114.373-.01.505.12.502.491-.005.42-.06.836-.097 1.254-.005.06-.029.09-.095.087a4.58 4.58 0 0 0-.329 0c-.077.004-.096-.03-.096-.1.002-.271 0-.544 0-.817Zm1.175-4.037.166.794.017.069a.057.057 0 0 0 .049.045c.032.004.036-.023.047-.044.014-.029.023-.06.039-.089.015-.028.01-.065.055-.053.036.01.046.043.042.078l-.04.367c-.002.027-.025.063.005.081.03.019.054-.014.08-.024.015-.005.027-.014.041-.018.014-.005.04-.024.059-.011.018.013.01.043.005.065l-.166.783a.292.292 0 0 1-.03.082c-.068.117-.155.128-.253.036a.277.277 0 0 1-.073-.14 31.946 31.946 0 0 1-.296-1.213.18.18 0 0 1 .061-.211.2.2 0 0 0 .072-.136 11.6 11.6 0 0 1 .07-.363.154.154 0 0 1 .05-.098Zm2 3.022a7.01 7.01 0 0 1 .195-.882c.172-.608.414-1.19.615-1.79l.108-.326c.014-.046.036-.078.087-.085.052-.008.062.036.083.065a.294.294 0 0 1 .024.291c-.333.885-.66 1.772-.99 2.658a.856.856 0 0 1-.041.098c-.013.023-.033.048-.063.038-.03-.011-.013-.042-.017-.067Zm-3.17-1.556c.035.02.031.049.035.072.021.095.04.19.062.284.007.027-.001.067.03.078.03.012.047-.027.07-.044a.454.454 0 0 0 .045-.042c.034-.033.056-.024.068.02.022.071.041.146.065.218.014.041.008.097.08.096.032 0 .016.032.01.049-.023.06-.046.12-.073.18-.022.05-.019.085.042.098.087.018.095.069.059.136a.794.794 0 0 1-.42.375c-.048.02-.09.02-.09-.05l.002-1.44c0-.008.007-.016.014-.03Zm-2.351 1.296a2.959 2.959 0 0 1-.328 1.868 2.803 2.803 0 0 1 .328-1.868Zm-.987.258a2.423 2.423 0 0 1 .309-1.721 2.521 2.521 0 0 1-.309 1.721Z"/>
  <path fill="#3A3244" d="M7.833 4.703c-.197-.108-.368-.217-.55-.304a2.405 2.405 0 0 0-3.395 1.58 2.323 2.323 0 0 0 .176 1.619c.057.12.117.237.18.364-.132.041-.261.08-.39.123a2.348 2.348 0 0 0-1.67 1.836 2.405 2.405 0 0 0 1.86 2.807 2.32 2.32 0 0 0 1.69-.27l.216-.123a.128.128 0 0 1 .02-.006l2.126 2.273 6.076-5.54c-.711-.762-1.417-1.519-2.132-2.281a2.349 2.349 0 0 0 .51-2.202 2.332 2.332 0 0 0-1.191-1.467 2.362 2.362 0 0 0-2.153-.072 2.487 2.487 0 0 0-1.373 1.663Z"/>
</svg>
