<svg xmlns="http://www.w3.org/2000/svg" width="244" height="220" fill="none" viewBox="0 0 244 220">
  <path fill="url(#a)" fill-rule="evenodd" d="M209.894 1.345c-16.406 3.565-38.688 17.882-51.069 32.813-6.202 7.479-9.658 15.512-12.691 29.494-4.723 21.778-9.808 32.77-21.36 46.182l-3.015 3.5-7.64-7.5C99.252 91.24 92.725 80.385 90.001 65.725c-1.659-8.918-5.365-16.158-10.236-19.989-1.44-1.133-12.897-11.727-25.458-23.542C35.623 4.619 31.21.927 30.043 1.895c-.784.651-1.426 1.573-1.426 2.048 0 .475 8.352 9.533 18.56 20.127C65.737 43.335 70.185 48.834 67.2 48.834c-1.497 0-2.883-1.208-28.953-25.25-14.847-13.692-21.63-18.493-12.008-8.5 34.823 36.164 37.897 39.75 34.078 39.75-1.294 0-8.441-6.309-31.067-27.425-6.526-6.091-12.338-11.075-12.916-11.075-3.04 0-.432 3.502 13.079 17.561C52.938 58.376 56.7 62.834 53.84 62.834c-1.692 0-6.49-4.086-25.02-21.307C18.207 31.663 9.26 23.859 8.934 24.183c-.325.325 7.952 9.505 18.393 20.4 19.429 20.274 22.68 24.251 19.828 24.251-1.865 0-11.368-8.363-40.794-35.902-3.514-3.289-3.863-3.407-5.432-1.838-1.92 1.918-4.04-.563 28.94 33.843 20.688 21.581 24.206 24.159 35.286 25.858 11.318 1.736 21.034 7.191 34.626 19.44 6.416 5.782 11.928 10.939 12.251 11.461.693 1.121-11.853 12.6-25.915 23.712-22.736 17.964-56.049 47.28-59.21 52.105-.822 1.254-1.922 4.187-2.445 6.516-1.24 5.519.97 11.674 5.06 14.09 4.198 2.479 11.753 2.228 16.208-.54 6.223-3.867 21.172-20.771 59.12-66.854 4.254-5.165 9.761-11.641 12.239-14.391l4.505-5 4.026 4.5c2.214 2.475 8.611 10.125 14.214 17 32.721 40.15 52.437 62.17 58.133 64.927 7.514 3.638 16.567 1.833 19.644-3.915 1.658-3.099 1.428-11.294-.416-14.862-2.936-5.677-25.352-25.898-58.68-52.934-9.569-7.762-19.834-16.297-22.811-18.967l-5.412-4.855 8.282-6.241c13.214-9.957 21.212-13.428 40.662-17.649 19.531-4.238 26.972-8.087 37.773-19.537 31.225-33.1 36.009-71.882 9.608-77.893-5.773-1.315-9.054-1.229-16.723.437Z" clip-rule="evenodd"/>
  <defs>
    <linearGradient id="a" x1="121.879" x2="121.879" y1="0" y2="219.828" gradientUnits="userSpaceOnUse">
      <stop stop-color="#FFD600"/>
      <stop offset="1" stop-color="#FF8A00" stop-opacity=".75"/>
    </linearGradient>
  </defs>
</svg>
