<svg xmlns="http://www.w3.org/2000/svg" width="606" height="464" fill="none" viewBox="0 0 606 464">
  <rect width="606" height="463.598" y=".031" fill="#000" fill-opacity=".52" rx="20"/>
  <circle cx="302.739" cy="231.739" r="49.739" fill="#757575"/>
  <path fill="#fff" d="m322.162 228.379-29.218-17.764c-2.657-1.328-5.811.498-5.811 3.487v34.531c0 3.154 3.154 4.98 5.811 3.486l29.218-16.767c2.823-1.495 2.823-5.313 0-6.973Zm22.081 2.988c0-22.744-18.428-41.172-41.172-41.172-22.745 0-41.172 18.428-41.172 41.172 0 22.744 18.427 41.172 41.172 41.172 22.744 0 41.172-18.428 41.172-41.172Zm-74.375 0c0-18.262 14.775-33.203 33.203-33.203 18.261 0 33.203 14.941 33.203 33.203 0 18.428-14.942 33.203-33.203 33.203a33.088 33.088 0 0 1-33.203-33.203Z"/>
</svg>
